<?xml version="1.0" standalone="no"?>
<!DOCTYPE svg PUBLIC "-//W3C//DTD SVG 1.1//EN" "http://www.w3.org/Graphics/SVG/1.1/DTD/svg11.dtd" >
<svg xmlns="http://www.w3.org/2000/svg">
<metadata></metadata>
<defs>
<font id="neuron_lightitalic" horiz-adv-x="944" >
<font-face units-per-em="2048" ascent="1536" descent="-512" />
<missing-glyph horiz-adv-x="421" />
<glyph horiz-adv-x="2048" />
<glyph horiz-adv-x="2048" />
<glyph horiz-adv-x="682" />
<glyph unicode="&#xd;" horiz-adv-x="868" />
<glyph unicode=" "  horiz-adv-x="421" />
<glyph unicode="&#x09;" horiz-adv-x="421" />
<glyph unicode="&#xa0;" horiz-adv-x="421" />
<glyph unicode="!" horiz-adv-x="372" d="M80 37q0 10 8 67q3 32 19 42t61 10q40 0 55 -7.5t15 -29.5q0 -2 -1 -9.5t-2.5 -24t-3.5 -34.5q-4 -33 -19 -42t-60 -9q-40 0 -56 7.5t-16 29.5zM129 319q0 6 8 107l60 780q1 28 16.5 37.5t58.5 9.5q39 0 51.5 -9t12.5 -34q0 -12 -10 -112l-82 -772q-5 -29 -16.5 -38 t-45.5 -9t-43.5 8.5t-9.5 31.5z" />
<glyph unicode="&#x22;" horiz-adv-x="462" d="M117 895q0 236 10 311q3 28 17 37.5t57 9.5q39 0 51 -7t12 -29q0 -58 -57 -320q-3 -19 -12.5 -25t-36.5 -6q-25 0 -33 6t-8 23zM344 895q0 236 10 311q3 28 17 37.5t57 9.5q40 0 53 -7t13 -29q0 -53 -58 -320q-5 -19 -14 -25t-35 -6q-25 0 -34 6t-9 23z" />
<glyph unicode="#" d="M82 414q0 39 8 63q10 23 33 23h149l33 301h-155q-14 0 -20.5 6t-6.5 22q0 42 10 62q7 22 33 22h151l25 228q3 29 15.5 38t52.5 9q32 0 42.5 -6.5t10.5 -26.5q0 -17 -4 -57l-21 -185h197l24 228q3 29 14.5 38t51.5 9q34 0 44.5 -6.5t10.5 -26.5q0 -17 -4 -57l-20 -185h159 q15 0 21 -5.5t6 -22.5q0 -42 -10 -62q-7 -22 -33 -22h-156l-32 -301h163q14 0 20.5 -6t6.5 -23q0 -44 -10 -61q-8 -25 -33 -25h-160l-26 -262q-3 -29 -14.5 -38t-51.5 -9q-34 0 -44.5 6.5t-10.5 26.5q0 17 4 57l23 219h-195l-27 -262q-5 -29 -16 -38t-51 -9q-33 0 -44.5 6.5 t-11.5 26.5q0 7 5 57l22 219h-154q-24 0 -24 29zM395 500h195l33 301h-195z" />
<glyph unicode="$" d="M61 68q0 34 11 54.5t30 20.5q3 0 105 -22.5t194 -22.5q86 0 142 13t92 47q31 31 51.5 97.5t20.5 127.5q0 55 -20 89t-66 56l-259 117q-102 47 -142 97.5t-40 142.5q0 68 18 137.5t46 116.5q69 119 282 125l17 141q3 27 16.5 36t52.5 9q34 0 46 -6t12 -25q0 -13 -6 -63 l-11 -96q116 -10 199 -35q23 -6 32 -15.5t9 -29.5q0 -78 -35 -78q-7 0 -49.5 11t-109 22.5t-132.5 11.5q-93 0 -141.5 -15t-73.5 -57q-37 -60 -37 -176q0 -48 20.5 -77.5t72.5 -53.5l278 -127q87 -39 121.5 -91.5t34.5 -139.5q0 -96 -33 -192.5t-92 -149.5q-75 -66 -213 -82 l-17 -146q-3 -27 -16.5 -36t-52.5 -9q-34 0 -46 6t-12 25q0 7 5 57l10 99q-165 7 -266 36q-28 9 -38 19.5t-10 30.5z" />
<glyph unicode="%" horiz-adv-x="1056" d="M84 25q0 17 20 43l793 1153q14 20 28 26t52 6q31 0 40 -5.5t9 -18.5q0 -20 -18 -43l-795 -1153q-13 -20 -27 -26.5t-49 -6.5q-32 0 -42.5 6t-10.5 19zM135 897q0 140 26 217t80.5 108t151.5 31q114 0 155.5 -39t41.5 -137q0 -141 -25 -218t-79.5 -108.5t-153.5 -31.5 q-114 0 -155.5 40t-41.5 138zM250 899q0 -47 20 -65.5t74 -18.5q78 0 104.5 51t26.5 209q0 47 -20 65.5t-74 18.5q-78 0 -104.5 -51t-26.5 -209zM514 176q0 141 26 218.5t80.5 109t151.5 31.5q114 0 155.5 -40t41.5 -139q0 -205 -56 -280.5t-202 -75.5q-114 0 -155.5 39 t-41.5 137zM631 180q0 -48 19.5 -67t74.5 -19q52 0 78.5 21t38.5 76t12 163q0 47 -19.5 65.5t-74.5 18.5q-52 0 -78.5 -20.5t-38.5 -75t-12 -162.5z" />
<glyph unicode="&#x26;" horiz-adv-x="1001" d="M53 240q0 98 27 198.5t76 143.5q55 50 196 63q-186 29 -186 203q0 91 21.5 186t58.5 142q42 54 103 71t159 17q145 0 299 -41q18 -5 24.5 -13t6.5 -26q0 -32 -9.5 -55t-29.5 -23q-5 0 -110.5 19.5t-180.5 19.5q-70 0 -106.5 -11.5t-59.5 -50.5q-20 -32 -30.5 -100 t-10.5 -127q0 -57 22.5 -91.5t84.5 -53.5t170 -19h155l17 144q3 29 15 38t52 9q34 0 44.5 -6t10.5 -25q0 -4 -0.5 -9.5t-2 -21.5t-3.5 -33l-10 -96h129q14 0 20.5 -6t6.5 -22q0 -48 -8.5 -63t-28.5 -15h-129l-31 -305q-9 -90 -39 -149.5t-84.5 -92t-121.5 -45t-164 -12.5 q-140 0 -217.5 28.5t-106.5 82t-29 147.5zM190 244q0 -32 7 -54t27.5 -44.5t66 -34t115.5 -11.5q79 0 126 6.5t82 26t51.5 54t22.5 92.5l33 307h-158q-119 0 -186 -12t-105 -44q-46 -39 -64 -123.5t-18 -162.5z" />
<glyph unicode="'" horiz-adv-x="233" d="M117 895q0 236 10 311q3 28 17 37.5t57 9.5q39 0 51 -7t12 -29q0 -58 -57 -320q-3 -19 -12.5 -25t-36.5 -6q-25 0 -33 6t-8 23z" />
<glyph unicode="(" horiz-adv-x="413" d="M104 414q0 152 23.5 301t62.5 268.5t71.5 198.5t68.5 149q11 21 26 30t43 9q52 0 52 -22q0 -15 -22.5 -69t-54.5 -138.5t-64 -190t-54.5 -252t-22.5 -295.5q0 -126 16 -240t32 -183.5t16 -85.5q0 -18 -13 -24.5t-42 -6.5t-43.5 8.5t-18.5 30.5q-76 221 -76 512z" />
<glyph unicode=")" horiz-adv-x="413" d="M10 -115q0 14 22 68t53.5 138.5t63.5 190t54 252t22 295.5q0 126 -15.5 240.5t-31.5 184t-16 85.5q0 31 55 31q29 0 43.5 -9t20.5 -30q75 -233 75 -512q0 -152 -23.5 -301.5t-62 -268.5t-72 -200t-69.5 -147q-11 -22 -26 -30.5t-44 -8.5q-49 0 -49 22z" />
<glyph unicode="*" horiz-adv-x="743" d="M94 975q0 13 15 47q17 41 38 41q8 0 191 -62q31 -11 49 -36q-12 24 -12 43q0 20 20 213q3 25 15.5 34t48.5 9q32 0 43.5 -6.5t11.5 -24.5q0 -9 -22 -207q-5 -38 -23 -61q21 24 57 36q191 62 197 62q12 0 18 -12q7 -8 14 -31t7 -39t-7 -22t-28 -13l-176 -55q-32 -8 -39 -8 q-16 0 -37 8q24 -8 35.5 -16t24.5 -27l98 -158q8 -13 8 -22q0 -17 -35 -45q-33 -23 -49 -23q-12 0 -25 23l-100 157q-16 26 -16 60q-5 -30 -31 -60l-127 -155q-22 -25 -37 -25q-17 0 -43 24t-26 38q0 13 14 30l131 156q14 18 25.5 25.5t33.5 15.5q-18 -6 -28 -6q-15 0 -39 8 l-166 55q-29 10 -29 29z" />
<glyph unicode="+" d="M152 526q0 50 9 67t29 17h238l29 254q3 27 15.5 36t49.5 9q32 0 44 -6.5t12 -25.5q0 -3 -1 -11.5t-2 -22.5t-2 -24l-22 -209h240q14 0 20 -6.5t6 -25.5q0 -50 -9.5 -67t-29.5 -17h-239l-27 -250q-3 -28 -15.5 -37.5t-50.5 -9.5q-32 0 -43.5 6.5t-11.5 25.5q0 15 4 58 l21 207h-238q-15 0 -20.5 6t-5.5 26z" />
<glyph unicode="," horiz-adv-x="325" d="M-2 -252q0 14 23 105.5t30 154.5l10 96q3 30 17 41t57 11q39 0 52.5 -8t13.5 -29q0 -7 -6 -72q-6 -64 -37 -147l-49 -131q-11 -25 -24.5 -33t-45.5 -8q-25 0 -33 4t-8 16z" />
<glyph unicode="-" horiz-adv-x="616" d="M76 516q0 48 10 68q10 24 35 24h405q18 0 23.5 -6t5.5 -24q0 -45 -10 -68q-8 -25 -35 -25h-406q-15 0 -21.5 7t-6.5 24z" />
<glyph unicode="." horiz-adv-x="333" d="M59 37q0 3 1 11t2.5 26t3.5 35q3 32 18.5 41.5t60.5 9.5q40 0 55 -7.5t15 -29.5q0 -7 -6 -72q-3 -32 -19 -41.5t-61 -9.5q-40 0 -55 7.5t-15 29.5z" />
<glyph unicode="/" horiz-adv-x="491" d="M-47 -109q0 11 12 48l475 1384q10 30 26 38.5t56 8.5q33 0 45.5 -6.5t12.5 -22.5q0 -6 -13 -47l-475 -1384q-10 -30 -26 -38.5t-56 -8.5q-33 0 -45 6.5t-12 21.5z" />
<glyph unicode="0" d="M78 324q0 74 39 432q14 129 35 214.5t53 145t83.5 91t116 44.5t160.5 13q93 0 153 -13t108 -48.5t70 -104.5t22 -176q0 -75 -39 -433q-17 -161 -45 -257t-82 -153.5t-127.5 -77t-194.5 -19.5q-74 0 -125.5 7.5t-97 29t-72 59.5t-42 99t-15.5 147zM211 328 q0 -71 11.5 -115.5t40.5 -70t70.5 -35t108.5 -9.5q61 0 101 5.5t73.5 24.5t52.5 44.5t35.5 76t25.5 108.5t20 151q34 304 34 410q0 137 -49.5 183t-181.5 46q-61 0 -101 -5.5t-73 -24.5t-52.5 -44.5t-35.5 -76t-25 -108.5t-20 -151q-35 -313 -35 -409z" />
<glyph unicode="1" d="M188 35q0 51 9.5 69.5t31.5 18.5h205l103 995l-199 -63q-27 -8 -43 -8q-23 0 -23 36q0 76 37 86l232 74q34 10 77 10q36 0 49 -9t13 -30q0 -6 -2.5 -28t-8.5 -74.5t-12 -107.5l-92 -881h209q15 0 21 -7.5t6 -27.5q0 -51 -9.5 -69.5t-31.5 -18.5h-545q-27 0 -27 35z" />
<glyph unicode="2" d="M106 39q0 6 15 156q12 112 56.5 177.5t154.5 143.5l307 219q123 88 123 279q0 85 -42 108t-167 23q-65 0 -127.5 -10.5t-102 -21.5t-47.5 -11q-13 0 -19.5 6t-6.5 25q0 39 12 60.5t47 31.5q131 39 287 39q55 0 93.5 -3.5t81 -16.5t67.5 -36.5t42 -65.5t17 -102 q0 -152 -45 -243q-22 -49 -59 -87t-101 -83l-309 -219q-57 -40 -84 -82.5t-35 -122.5l-8 -80h518q15 0 22 -7.5t7 -27.5q0 -51 -10 -69.5t-31 -18.5h-612q-24 0 -34 8t-10 31z" />
<glyph unicode="3" d="M68 72q0 43 8 56t26 13q3 0 114.5 -20.5t203.5 -20.5q81 0 135 20.5t82.5 61.5t39.5 91.5t11 123.5q0 45 -13.5 76.5t-48.5 57t-101 38.5t-165 13q-24 0 -33.5 8t-9.5 31q0 46 13 62.5t43 16.5q187 0 262 56q96 70 96 250q0 87 -40 113t-138 26q-83 0 -196.5 -20.5 t-116.5 -20.5q-15 0 -21 6t-6 25q0 37 11.5 59.5t43.5 30.5q137 39 328 39q67 0 112.5 -9.5t84 -34t57 -73.5t18.5 -123q0 -104 -34 -193.5t-95 -130.5q-63 -41 -143 -55q229 -18 229 -246q0 -417 -393 -417q-79 0 -172.5 10t-146.5 28q-26 8 -35.5 18t-9.5 34z" />
<glyph unicode="4" d="M76 383q0 60 24 96l496 721q24 35 51.5 44t93.5 9q56 0 74.5 -9t18.5 -40q0 -15 -5 -55l-71 -690h92q23 0 31 -6.5t8 -30.5q0 -50 -11.5 -65t-39.5 -15h-93l-30 -295q-3 -28 -18 -37.5t-56 -9.5q-36 0 -47.5 6.5t-11.5 26.5q0 2 6 63l26 246h-493q-25 0 -35 8t-10 33z M233 459h394q31 271 73 678h-12z" />
<glyph unicode="5" d="M113 70q0 44 7.5 55.5t26.5 11.5q8 0 45 -9.5t96 -19.5t122 -10q68 0 110.5 6t75.5 20t52 43.5t31 69.5t21 105q15 109 15 158q0 91 -40 119t-130 28q-85 0 -189.5 -20.5t-115.5 -20.5q-13 0 -20.5 1t-16.5 5t-13 13t-4 24q0 6 1.5 18t5.5 45.5t8 71.5l45 424q3 27 14 36 t45 9h537q16 0 22 -6.5t6 -27.5q0 -51 -10.5 -70t-30.5 -19h-464l-43 -397q147 29 241 29q50 0 84 -3t75 -17t65.5 -38.5t41.5 -71t17 -112.5q0 -48 -15 -170q-10 -80 -29.5 -141t-49 -100.5t-62.5 -65.5t-79 -39t-88.5 -17.5t-100.5 -4.5q-135 0 -264 38q-26 6 -35.5 16 t-9.5 34z" />
<glyph unicode="6" d="M119 291q0 107 37 444q15 140 49.5 240t76 155t102.5 86.5t113.5 39.5t125.5 8q43 0 109 -8t104 -17q25 -5 33 -12.5t8 -30.5q0 -76 -37 -76q-3 0 -87 13.5t-137 13.5q-33 0 -53.5 -1t-49 -5t-46.5 -12t-41 -22.5t-38.5 -36t-33 -53t-29 -72t-22.5 -95t-18 -121.5 l-11 -82q80 115 310 115q75 0 124.5 -11t87.5 -40.5t55 -84t17 -137.5q0 -146 -26.5 -245t-82 -156.5t-131.5 -81.5t-186 -24q-69 0 -114.5 6t-88.5 24.5t-67 52t-38.5 90t-14.5 136.5zM246 301q0 -68 12 -109t41.5 -61.5t63 -26.5t92.5 -6q61 0 100.5 6.5t78 28t60 62 t34.5 109t13 167.5q0 103 -44.5 139.5t-164.5 36.5q-109 0 -169 -29.5t-88.5 -104t-28.5 -212.5z" />
<glyph unicode="7" d="M205 1167q0 50 10 68t31 18h633q26 0 35.5 -8t9.5 -33q0 -44 -25 -98l-518 -1079q-10 -21 -28 -28t-54 -7q-61 0 -61 27q0 22 16 51l512 1052h-533q-15 0 -21.5 8t-6.5 29z" />
<glyph unicode="8" d="M88 248q0 188 49.5 283t141.5 128q-97 49 -97 203q0 64 7.5 117t18.5 92t31.5 69.5t39.5 51t49 34.5t54 21.5t61 11t62.5 4.5t65.5 1q34 0 54 -0.5t51 -3t49.5 -6.5t43.5 -13t40 -21t31.5 -30.5t25.5 -42.5t15 -56.5t6 -72.5q0 -158 -38.5 -241.5t-115.5 -117.5 q123 -48 123 -233q0 -174 -43.5 -270.5t-132.5 -135t-246 -38.5q-193 0 -269.5 55.5t-76.5 210.5zM219 268q0 -56 11.5 -90t41.5 -52t68.5 -24t105.5 -6q79 0 129 12t82 44q68 71 68 276q0 54 -13 88t-43.5 52t-68.5 24t-100 6q-86 0 -140.5 -16t-87.5 -60q-53 -74 -53 -254 zM313 860q0 -50 10.5 -79t39 -43t59.5 -17.5t90 -3.5q48 0 76.5 2.5t60 12t48.5 28t32 50.5t21 80t6 116q0 92 -42.5 118.5t-156.5 26.5q-74 0 -114.5 -8.5t-73 -38.5t-44.5 -88t-12 -156z" />
<glyph unicode="9" d="M96 49q0 76 37 76q3 0 86.5 -13.5t136.5 -13.5q36 0 59.5 1t53.5 4.5t49 10t42.5 18t38.5 29t32.5 42t28.5 57.5t22 75.5t18.5 95.5t12.5 118l4 49q-74 -115 -297 -115q-75 0 -123.5 11t-85 39.5t-52.5 81.5t-16 135q0 196 43.5 308.5t130 159t232.5 46.5q57 0 97.5 -4 t80 -15.5t65 -32.5t46 -54.5t30 -83t9.5 -116.5q0 -134 -37 -446q-10 -83 -25 -151t-32.5 -119t-42 -91t-48.5 -67.5t-57 -46.5t-61 -29.5t-67.5 -16.5t-70.5 -7.5t-76 -1.5q-43 0 -114 7t-107 15q-28 8 -35.5 15.5t-7.5 29.5zM272 762q0 -96 41.5 -130t157.5 -34 q108 0 166.5 30.5t85.5 107.5t27 222q0 64 -11 102.5t-39.5 58t-64 25t-98.5 5.5q-60 0 -97.5 -7t-72.5 -29.5t-54 -65t-30 -112.5t-11 -173z" />
<glyph unicode=":" horiz-adv-x="323" d="M59 37q0 3 1 11t2.5 26t3.5 35q3 32 18.5 41.5t60.5 9.5q40 0 55 -7.5t15 -29.5q0 -7 -6 -72q-3 -32 -19 -41.5t-61 -9.5q-40 0 -55 7.5t-15 29.5zM150 897q0 7 6 72q3 32 19 41.5t61 9.5q40 0 54.5 -7t14.5 -30q0 -7 -6 -72q-3 -32 -19 -41.5t-61 -9.5q-40 0 -54.5 7 t-14.5 30z" />
<glyph unicode=";" horiz-adv-x="323" d="M-2 -252q0 14 23 105.5t30 154.5l10 96q3 30 17 41t57 11q39 0 52.5 -8t13.5 -29q0 -7 -6 -72q-6 -64 -37 -147l-49 -131q-11 -25 -24.5 -33t-45.5 -8q-25 0 -33 4t-8 16zM147 897q0 3 1 11t2.5 26t3.5 35q3 32 18.5 41.5t60.5 9.5q40 0 55 -7.5t15 -29.5q0 -7 -6 -72 q-3 -32 -19 -41.5t-61 -9.5q-40 0 -55 7.5t-15 29.5z" />
<glyph unicode="&#x3c;" d="M160 506q0 129 61 149l516 211q32 13 49 13q25 0 25 -27q0 -45 -7.5 -67.5t-20.5 -32.5t-46 -23l-448 -174l-2 -18l411 -168q37 -14 47.5 -24t10.5 -32q0 -90 -43 -90q-12 0 -41 13l-469 206q-23 9 -33 23t-10 41z" />
<glyph unicode="=" d="M182 395q0 30 8 62q7 22 33 22h529q15 0 20.5 -6.5t5.5 -26.5q0 -40 -8 -61q-5 -23 -33 -23h-526q-16 0 -22.5 7t-6.5 26zM211 674q0 40 8 61q8 23 33 23h526q16 0 22.5 -7t6.5 -26q0 -40 -8 -61q-8 -23 -33 -23h-526q-16 0 -22.5 7t-6.5 26z" />
<glyph unicode="&#x3e;" d="M156 248q0 65 13 85t58 38l449 174l2 18l-412 166q-37 16 -47 25.5t-10 31.5q0 36 10.5 63.5t32.5 27.5q14 0 43 -13l467 -207q24 -9 33.5 -22.5t9.5 -40.5q0 -127 -60 -150l-516 -211q-30 -12 -51 -12q-22 0 -22 27z" />
<glyph unicode="?" horiz-adv-x="722" d="M115 1135q0 71 35 82q131 47 301 47q55 0 94 -3.5t81 -16.5t68 -35.5t43 -63.5t17 -98q0 -106 -32 -178t-114 -152l-166 -162q-31 -29 -48 -64.5t-25 -103.5l-4 -61q-3 -28 -17 -37.5t-53 -9.5q-34 0 -46.5 8t-12.5 28q0 9 10 97q7 71 30 115t70 91l184 183q86 83 86 227 q0 75 -40.5 96t-155.5 21q-61 0 -125 -10.5t-105.5 -20.5t-48.5 -10q-15 0 -20.5 6t-5.5 25zM197 37q0 2 6 67q4 32 20 42t60 10q41 0 56 -7t15 -30q0 -3 -6 -68q-4 -33 -20 -42t-62 -9q-40 0 -54.5 7t-14.5 30z" />
<glyph unicode="@" horiz-adv-x="1642" d="M66 170q0 139 34 459q12 118 34 212.5t56 165.5t74 124t96 89.5t113 59.5t134 35.5t150 17t169 4.5q100 0 173.5 -4.5t149.5 -18t129 -37.5t101 -64t77 -95.5t45.5 -134t16.5 -178.5q0 -72 -37 -436q-38 -389 -315 -389q-100 0 -149.5 42t-61.5 132q-88 -174 -338 -174 q-161 0 -223 65.5t-62 237.5q0 99 14 225q17 161 49 264t86.5 158.5t120 75.5t164.5 20q108 0 165.5 -36t80.5 -107l8 75q3 29 16.5 38.5t53.5 9.5q35 0 47 -7t12 -28q0 -1 -2 -18.5t-13 -121t-28 -270.5q-32 -298 -32 -344q0 -127 102 -127q37 0 61 8.5t47.5 35.5t39 82.5 t26.5 143.5q39 323 39 445q0 79 -12 140t-33.5 105.5t-59 75.5t-80.5 50.5t-106.5 30t-128 14.5t-154.5 4q-89 0 -153.5 -3.5t-130 -14.5t-112 -29.5t-91 -49.5t-74.5 -74.5t-56 -103.5t-42.5 -138t-26.5 -177q-34 -329 -34 -451q0 -193 88 -286q66 -69 179 -97t292 -28 q25 0 33 -6.5t8 -30.5q0 -30 -7 -55q-10 -25 -45 -25q-194 0 -324.5 28.5t-215.5 106.5q-137 122 -137 379zM567 299q0 -120 39.5 -162.5t143.5 -42.5q78 0 128 13.5t90.5 52.5t62.5 110.5t34 186.5q18 196 18 245q0 112 -46.5 159.5t-166.5 47.5q-63 0 -103 -9.5t-73 -34 t-53 -73.5t-35 -119.5t-26 -180.5q-13 -127 -13 -193z" />
<glyph unicode="A" horiz-adv-x="1046" d="M6 27q0 19 12 47l471 1124q15 37 36.5 46t92.5 9t90.5 -8.5t26.5 -46.5l228 -1096q10 -54 10 -67q0 -20 -14.5 -27.5t-53.5 -7.5q-40 0 -52.5 7.5t-18.5 33.5l-72 354h-467l-148 -360q-8 -21 -22.5 -28t-54.5 -7q-64 0 -64 27zM340 506h403l-122 629h-25z" />
<glyph unicode="B" horiz-adv-x="1048" d="M102 45q0 15 4 43l117 1100q3 29 16.5 41.5t43.5 17.5q173 17 295 17q62 0 101 -1.5t83.5 -6t71 -14t52.5 -26t39.5 -40.5t22 -58.5t8.5 -79.5q0 -292 -174 -370q81 -22 117.5 -78.5t36.5 -159.5q0 -129 -23 -213.5t-77.5 -137.5t-137 -75t-209.5 -22q-172 0 -327 14 q-35 4 -47.5 15t-12.5 34zM238 104q95 -12 264 -12q92 0 148.5 16t90.5 57t46 101t12 158q0 102 -51 142t-189 40h-266zM303 717h223q110 0 165 14.5t81 61.5q45 81 45 233q0 76 -47.5 99.5t-196.5 23.5q-130 0 -225 -10z" />
<glyph unicode="C" horiz-adv-x="933" d="M102 344q0 96 22.5 296.5t45.5 293.5q22 89 52.5 150.5t64.5 96.5t84.5 54t97 24t117.5 5q166 0 291 -39q24 -5 34.5 -13t10.5 -26q0 -80 -37 -80q-7 0 -51 10t-110 20.5t-126 10.5q-42 0 -69.5 -1.5t-57.5 -6.5t-49.5 -15t-39.5 -26t-34 -40.5t-26.5 -58.5t-22.5 -79 q-21 -92 -41 -281t-20 -279q0 -72 11 -120t29 -76.5t53.5 -43t71 -18.5t95.5 -4q97 0 191 20.5t97 20.5q23 0 23 -26q0 -43 -12 -63t-45 -30q-105 -38 -287 -38q-49 0 -83 2t-75.5 10.5t-68.5 23t-55 41.5t-44.5 64.5t-26.5 93.5t-10 127z" />
<glyph unicode="D" horiz-adv-x="1054" d="M102 47q0 12 7 66l114 1075q5 48 60 59q129 17 299 17q65 0 110 -2.5t93 -11.5t79.5 -25t61 -43t46 -66.5t26.5 -95t10 -127.5q0 -109 -25 -322.5t-61 -324.5q-19 -60 -43.5 -103.5t-57.5 -72.5t-66 -47t-80.5 -26.5t-90.5 -11.5t-105 -3q-185 0 -315 14q-34 4 -48 16.5 t-14 34.5zM240 109q116 -11 252 -11q59 0 95.5 3.5t75 14.5t62.5 33t45.5 59.5t36.5 92.5q28 105 47.5 285.5t19.5 283.5q0 64 -6 109t-23 76.5t-37.5 49.5t-58 28t-76 13t-100.5 3q-93 0 -225 -10z" />
<glyph unicode="E" horiz-adv-x="929" d="M102 31l9 88l112 1089q3 27 15 36t47 9h608q16 0 21.5 -6.5t5.5 -27.5q0 -52 -9.5 -70.5t-31.5 -18.5h-531l-43 -407h424q16 0 22.5 -7t6.5 -26q0 -52 -9.5 -69t-31.5 -17h-424l-49 -481h549q15 0 21.5 -7.5t6.5 -27.5q0 -51 -10 -69.5t-31 -18.5h-628q-29 0 -39.5 7 t-10.5 24z" />
<glyph unicode="F" horiz-adv-x="868" d="M102 33l9 88l112 1087q3 27 15 36t47 9h589q16 0 22.5 -6.5t6.5 -27.5q0 -51 -10.5 -70t-30.5 -19h-514l-43 -407h406q16 0 22 -6.5t6 -26.5q0 -52 -9.5 -69t-31.5 -17h-405l-60 -557q-3 -28 -16.5 -37.5t-54.5 -9.5q-35 0 -47.5 7t-12.5 26z" />
<glyph unicode="G" horiz-adv-x="997" d="M104 344q0 91 27 346q8 80 19 145.5t25.5 118.5t30.5 94.5t37.5 73t43 54.5t51 39t57 25.5t65.5 15t71.5 7t80.5 1.5q140 0 269 -37q24 -7 34.5 -15t10.5 -26q0 -80 -37 -80q-7 0 -47.5 10t-103 20.5t-122.5 10.5q-70 0 -110 -4t-81 -21t-62.5 -46t-43 -84t-34 -130 t-25.5 -190q-22 -220 -22 -312q0 -61 6.5 -104t22.5 -72t35 -46.5t53 -26t66.5 -11t84.5 -2.5q57 0 94.5 7.5t68 26.5t49.5 57t32 93t22 140l12 125h-223q-14 0 -20 7.5t-6 27.5q0 50 9 68t29 18h289q33 0 45.5 -8t12.5 -27q0 -21 -2 -39l-21 -186q-14 -132 -39.5 -212 t-75.5 -129.5t-120 -67t-183 -17.5q-44 0 -73.5 1t-65.5 5t-60 11.5t-51 20.5t-44.5 32t-34 46t-26 62t-15 81.5t-5.5 102.5z" />
<glyph unicode="H" horiz-adv-x="1058" d="M102 33q0 17 4 53l117 1120q3 28 17 37.5t55 9.5q36 0 47.5 -5.5t11.5 -24.5q0 -20 -4 -56l-47 -452h512l53 491q3 28 17 37.5t55 9.5q36 0 47.5 -5.5t11.5 -24.5q0 -20 -4 -56l-116 -1120q-3 -28 -17 -37.5t-55 -9.5q-36 0 -47.5 6.5t-11.5 26.5q0 17 4 53l51 508h-512 l-58 -547q-3 -28 -16.5 -37.5t-54.5 -9.5q-36 0 -48 6.5t-12 26.5z" />
<glyph unicode="I" horiz-adv-x="407" d="M102 33q0 17 4 53l117 1120q3 28 17 37.5t55 9.5q36 0 47.5 -5.5t11.5 -24.5q0 -20 -4 -56l-117 -1120q-3 -28 -16.5 -37.5t-54.5 -9.5q-36 0 -48 6.5t-12 26.5z" />
<glyph unicode="J" horiz-adv-x="708" d="M27 49q0 32 6 48t12 19t18 3q5 0 65.5 -10.5t111.5 -10.5q104 0 143 40.5t51 162.5l98 905q3 28 17 37.5t55 9.5q36 0 48 -6t12 -24q0 -11 -5 -56l-94 -882q-18 -160 -96 -231.5t-219 -71.5q-95 0 -180 22q-23 6 -33 16t-10 29z" />
<glyph unicode="K" horiz-adv-x="901" d="M102 33q0 17 4 53l117 1120q3 28 17 37.5t55 9.5q36 0 47.5 -5.5t11.5 -24.5q0 -10 -4 -56l-49 -473h25l471 531q15 17 33 22.5t59 5.5q37 0 50 -5t13 -23q0 -21 -30 -54l-490 -530l399 -565q21 -28 21 -43q0 -19 -17 -26t-59 -7q-37 0 -52.5 6t-27.5 25l-381 567h-24 l-58 -551q-3 -28 -16.5 -37.5t-54.5 -9.5q-36 0 -48 6.5t-12 26.5z" />
<glyph unicode="L" horiz-adv-x="862" d="M102 31q0 15 15 153l106 1022q3 28 17 37.5t55 9.5q36 0 47.5 -5.5t11.5 -24.5q0 -16 -4 -56l-108 -1044h522q15 0 22 -7.5t7 -27.5q0 -51 -10.5 -69.5t-32.5 -18.5h-598q-29 0 -39.5 7t-10.5 24z" />
<glyph unicode="M" horiz-adv-x="1282" d="M102 33q0 17 4 53l117 1118q3 29 24.5 39t94.5 10q69 0 92.5 -11.5t36.5 -61.5l174 -691h12l320 693q22 47 49.5 59t93.5 12q67 0 88 -7t21 -27q0 -19 -12 -129l-107 -1043q-5 -28 -19 -37.5t-55 -9.5q-36 0 -47.5 6.5t-11.5 26.5q0 17 4 53l104 1008h-16l-342 -711 q-14 -31 -33 -40t-59 -9q-39 0 -55 9t-25 40l-195 711h-18l-109 -1047q-3 -28 -16.5 -37.5t-54.5 -9.5q-36 0 -48 6.5t-12 26.5z" />
<glyph unicode="N" horiz-adv-x="1112" d="M102 33q0 17 4 53l117 1120q3 28 24 37.5t87 9.5q58 0 77.5 -8t28.5 -35l355 -1034h20q6 54 42.5 415.5t64.5 614.5q3 28 16.5 37.5t54.5 9.5q36 0 48 -6t12 -24q0 -15 -15 -160l-106 -1016q-3 -28 -24 -37.5t-87 -9.5q-56 0 -75 8t-29 37l-357 1038h-20 q-16 -166 -107 -1036q-3 -28 -16.5 -37.5t-54.5 -9.5q-36 0 -48 6.5t-12 26.5z" />
<glyph unicode="O" horiz-adv-x="1044" d="M104 340q0 100 20 305t52 330q20 76 48 127.5t62 83.5t86 49.5t107 23t137 5.5q56 0 95.5 -2.5t82 -11.5t71 -24.5t55 -42t42 -64.5t24.5 -91.5t9 -122.5q0 -101 -19.5 -306t-51.5 -329q-20 -76 -48 -127.5t-62 -83.5t-86.5 -49t-107 -22.5t-137.5 -5.5q-66 0 -110.5 4 t-91.5 16.5t-76.5 36.5t-54 63t-35.5 98.5t-11 139.5zM236 348q0 -82 13 -131.5t46.5 -76t77.5 -34.5t121 -8q60 0 99.5 4t75.5 16t59 34.5t41 58.5t30 90q27 117 46 312t19 284q0 82 -13 131.5t-46.5 76t-77.5 34.5t-121 8q-60 0 -99.5 -4t-75.5 -16t-59 -34.5t-41 -58.5 t-30 -90q-27 -117 -46 -312t-19 -284z" />
<glyph unicode="P" horiz-adv-x="995" d="M102 33q0 17 4 53l113 1102q6 49 62 57q144 19 305 19q82 0 137.5 -5.5t104.5 -21t76.5 -44t43 -74t15.5 -111.5q0 -270 -107 -386t-367 -116h-208l-48 -459q-3 -28 -16.5 -37.5t-54.5 -9.5q-36 0 -48 6.5t-12 26.5zM291 618h215q178 0 246.5 80.5t68.5 292.5 q0 95 -53 126.5t-205 31.5q-79 0 -217 -10z" />
<glyph unicode="Q" horiz-adv-x="1044" d="M104 340q0 100 20 305t52 330q20 76 48 127.5t62 83.5t86 49.5t107 23t137 5.5q56 0 95.5 -2.5t82 -11.5t71 -24.5t55 -42t42 -64.5t24.5 -91.5t9 -122.5q0 -101 -19.5 -306t-51.5 -329q-29 -110 -73.5 -170t-115.5 -88l72 -166q14 -32 14 -47t-14 -21.5t-47 -6.5 q-36 0 -50 5.5t-20 22.5l-74 189q-58 -6 -133 -6q-66 0 -110.5 4t-91.5 16.5t-76.5 36.5t-54 63t-35.5 98.5t-11 139.5zM236 348q0 -82 13 -131.5t46.5 -76t77.5 -34.5t121 -8q60 0 99.5 4t75.5 16t59 34.5t41 58.5t30 90q27 117 46 312t19 284q0 82 -13 131.5t-46.5 76 t-77.5 34.5t-121 8q-60 0 -99.5 -4t-75.5 -16t-59 -34.5t-41 -58.5t-30 -90q-27 -117 -46 -312t-19 -284z" />
<glyph unicode="R" horiz-adv-x="1007" d="M102 33q0 17 4 53l113 1102q6 49 62 57q144 19 303 19q105 0 169 -8.5t115 -35t73 -77t22 -131.5q0 -198 -60.5 -302t-200.5 -139l175 -485q16 -41 16 -55q0 -31 -70 -31q-40 0 -53.5 6.5t-19.5 26.5l-170 520q-29 -2 -88 -2h-207l-52 -504q-3 -28 -16.5 -37.5 t-54.5 -9.5q-36 0 -48 6.5t-12 26.5zM297 659h211q92 0 148.5 13t97 49.5t57 100.5t16.5 167q0 95 -55 127.5t-207 32.5q-81 0 -219 -10z" />
<glyph unicode="S" horiz-adv-x="903" d="M35 68q0 75 41 75q3 0 105 -22.5t194 -22.5q84 0 139.5 13t91.5 47q32 31 52 97t20 128q0 56 -19.5 89.5t-64.5 55.5l-258 117q-103 47 -142.5 97.5t-39.5 142.5q0 69 16.5 138.5t44.5 115.5q39 66 114 95.5t195 29.5q71 0 157.5 -10.5t143.5 -28.5q23 -6 32 -15.5 t9 -29.5q0 -78 -35 -78q-7 0 -49.5 11t-109 22.5t-131.5 11.5q-94 0 -142 -15t-73 -57q-39 -63 -39 -176q0 -48 20.5 -77.5t73.5 -53.5l278 -127q86 -39 121 -92t35 -139q0 -97 -33.5 -193t-93.5 -149q-96 -86 -305 -86q-179 0 -301 36q-28 9 -37.5 19.5t-9.5 30.5z" />
<glyph unicode="T" horiz-adv-x="874" d="M117 1167q0 51 10.5 68.5t32.5 17.5h733q15 0 21 -6.5t6 -27.5q0 -52 -9.5 -70.5t-31.5 -18.5h-299l-115 -1083q-3 -28 -18 -37.5t-56 -9.5q-34 0 -46.5 6.5t-12.5 26.5q0 17 4 53l110 1044h-301q-15 0 -21.5 8t-6.5 29z" />
<glyph unicode="U" horiz-adv-x="1050" d="M119 274q0 73 26 304l68 628q3 28 17 37.5t55 9.5q36 0 47.5 -5.5t11.5 -24.5q0 -20 -4 -56l-59 -592q-27 -261 -27 -288q0 -99 52 -141t186 -42q152 0 211 55.5t73 192.5l90 854q3 28 17.5 37.5t54.5 9.5q36 0 48.5 -6t12.5 -24q0 -20 -4 -56l-84 -813 q-20 -200 -122.5 -286t-311.5 -86q-189 0 -273.5 67t-84.5 225z" />
<glyph unicode="V" horiz-adv-x="1034" d="M131 1225q0 18 14.5 23t55.5 5q40 0 53 -6t16 -26l209 -1100h25l434 1100q7 20 22.5 26t57.5 6q36 0 49.5 -4.5t13.5 -19.5q0 -17 -18 -60l-457 -1116q-13 -35 -35.5 -44t-89.5 -9q-68 0 -87.5 9t-26.5 44l-224 1096q-12 53 -12 76z" />
<glyph unicode="W" horiz-adv-x="1624" d="M131 1214q2 20 17 28.5t51 8.5q40 0 54.5 -7.5t14.5 -26.5l133 -1092h25l358 1061q10 29 35.5 38t83.5 9q56 0 78.5 -9t26.5 -38l141 -1061h22l361 1092q6 19 22 26.5t56 7.5q35 0 47 -6.5t12 -23.5q0 -6 -16 -64q-67 -207 -204.5 -604t-172.5 -500q-12 -34 -35.5 -43.5 t-89.5 -9.5q-67 0 -89 9.5t-26 43.5l-141 1016h-21l-352 -1016q-12 -34 -35.5 -43.5t-89.5 -9.5q-65 0 -86.5 9.5t-25.5 43.5l-150 1121q-4 28 -4 40z" />
<glyph unicode="X" horiz-adv-x="929" d="M8 29q0 18 23 51l387 561l-246 524q-18 41 -18 56q0 19 15.5 25.5t55.5 6.5t55.5 -6t24.5 -26l199 -457h8l291 455q12 20 29 27t55 7q36 0 51.5 -6t15.5 -22q0 -20 -22 -51l-359 -529l265 -565q14 -28 14 -49q0 -31 -74 -31q-40 0 -55.5 6.5t-24.5 28.5l-211 489h-10 l-319 -489q-14 -21 -30.5 -28t-55.5 -7q-64 0 -64 29z" />
<glyph unicode="Y" horiz-adv-x="935" d="M125 1223q0 18 16.5 24t55.5 6q43 0 58 -5.5t21 -26.5l203 -582h8l324 582q10 21 28 26.5t62 5.5q34 0 47 -5.5t13 -20.5q0 -17 -19 -51l-407 -682l-48 -447q-3 -28 -16.5 -37.5t-54.5 -9.5q-36 0 -48 6.5t-12 26.5q0 17 4 53l41 408l-264 682q-12 36 -12 47z" />
<glyph unicode="Z" horiz-adv-x="868" d="M16 55q0 29 8 49t33 56l676 970h-524q-16 0 -22.5 8t-6.5 29q0 51 9.5 68.5t31.5 17.5h633q25 0 32 -10.5t7 -44.5q0 -45 -35 -96l-680 -979h572q14 0 20 -7.5t6 -27.5q0 -51 -10 -69.5t-31 -18.5h-680q-26 0 -32.5 10t-6.5 45z" />
<glyph unicode="[" horiz-adv-x="475" d="M98 -94q0 2 1 9.5t4.5 36.5t7.5 71l133 1290q3 28 15 37.5t48 9.5h246q15 0 21 -6.5t6 -26.5q0 -48 -9.5 -65t-29.5 -17h-172l-131 -1257h190q14 0 20.5 -7t6.5 -28q0 -47 -9.5 -63.5t-29.5 -16.5h-264q-31 0 -42.5 7t-11.5 26z" />
<glyph unicode="\" horiz-adv-x="493" d="M43 1341q0 29 61 29q37 0 51.5 -9.5t20.5 -39.5l297 -1370q10 -49 10 -60q0 -28 -61 -28q-38 0 -51.5 8.5t-20.5 40.5l-297 1370q-10 49 -10 59z" />
<glyph unicode="]" horiz-adv-x="475" d="M-53 -94q0 48 9.5 65t29.5 17h172l131 1257h-191q-14 0 -20 7t-6 28q0 47 9.5 63.5t29.5 16.5h264q31 0 42 -7t11 -26q0 -2 -0.5 -5t-1 -11t-2 -19t-3.5 -33.5t-5 -48.5l-133 -1290q-5 -29 -16.5 -38t-47.5 -9h-246q-15 0 -20.5 6.5t-5.5 26.5z" />
<glyph unicode="^" horiz-adv-x="948" d="M186 733q0 6 2.5 14.5t6 14.5t9.5 17t9 18l244 407q20 32 40 41.5t78 9.5t76 -9.5t29 -41.5l135 -389q25 -73 25 -76q0 -16 -13 -24t-49 -8q-41 0 -54 8t-22 37l-133 385h-12l-219 -385q-16 -27 -32.5 -36t-59.5 -9q-60 0 -60 26z" />
<glyph unicode="_" horiz-adv-x="927" d="M16 -123q0 41 11 70q9 20 32 20h736q15 0 21.5 -7.5t6.5 -27.5q0 -42 -10 -69q-8 -19 -33 -19h-735q-16 0 -22.5 7t-6.5 26z" />
<glyph unicode="`" horiz-adv-x="421" d="M131 1384q0 18 14 24.5t58 6.5t60.5 -8t25.5 -31q143 -224 143 -243q0 -27 -53 -27q-40 0 -55.5 7.5t-28.5 27.5l-137 188q-27 39 -27 55z" />
<glyph unicode="a" horiz-adv-x="997" d="M88 240q0 131 27 352q31 237 126 335.5t267 98.5q66 0 114 -9t76.5 -26t45 -35t26.5 -43l6 50q4 26 18.5 34.5t53.5 8.5q33 0 44 -8t11 -25q0 -22 -36 -346.5t-36 -372.5q0 -26 7.5 -113.5t7.5 -105.5t-12.5 -26.5t-47.5 -8.5t-47 9t-14 34l-14 150q-106 -213 -361 -213 q-138 0 -200 61t-62 199zM221 260q0 -91 41.5 -128.5t130.5 -37.5q68 0 125 24.5t94.5 64.5t61.5 84.5t35 92.5q18 79 30.5 212.5t12.5 175.5q0 79 -48.5 120t-173.5 41q-89 0 -142.5 -26.5t-89 -97.5t-52.5 -201q-25 -176 -25 -324z" />
<glyph unicode="b" horiz-adv-x="1048" d="M115 158q0 37 12 147l102 981q3 30 16 38.5t54 8.5q37 0 50 -6t13 -27q0 -9 -12 -129l-33 -301q56 88 137 122t205 34q158 0 221.5 -57.5t63.5 -218.5q0 -125 -24.5 -306t-73.5 -276q-54 -103 -150 -145.5t-250 -42.5q-98 0 -165 14t-102 39.5t-49.5 55.5t-14.5 69z M246 190q0 -33 16 -52.5t65.5 -31.5t139.5 -12q107 0 168.5 29.5t97.5 103.5q29 62 51.5 228.5t22.5 263.5q0 115 -40 152.5t-151 37.5q-160 0 -235 -91.5t-98 -285.5q-37 -322 -37 -342z" />
<glyph unicode="c" horiz-adv-x="843" d="M90 289q0 294 76 512q21 60 52 102t64 65.5t78 37t83.5 17t91.5 3.5q47 0 116 -9.5t107 -21.5q27 -9 36 -18.5t9 -30.5q0 -28 -6 -43.5t-12 -18.5t-15 -3q-1 0 -86 15t-162 15q-100 0 -151 -28.5t-80 -114.5q-68 -201 -68 -475q0 -120 45.5 -159.5t171.5 -39.5 q59 0 119 13t98 25.5t43 12.5q11 0 16 -5.5t5 -24.5q0 -43 -10 -60t-37 -28q-118 -47 -268 -47q-69 0 -115.5 7t-87 26t-64 53.5t-36.5 89t-13 133.5z" />
<glyph unicode="d" horiz-adv-x="1007" d="M88 248q0 141 31 373q27 209 124 307t265 98q124 0 181 -29.5t79 -81.5l37 371q3 30 16 38.5t53 8.5q38 0 51 -5.5t13 -24.5q0 -17 -14 -146l-66 -618q-4 -37 -12 -101.5t-11.5 -105.5t-3.5 -78q0 -26 7.5 -113.5t7.5 -105.5t-12.5 -26.5t-47.5 -8.5q-34 0 -46.5 8 t-14.5 29l-14 156q-106 -213 -361 -213q-138 0 -200 61.5t-62 206.5zM221 260q0 -91 41.5 -128.5t130.5 -37.5q138 0 226.5 93t107.5 266q25 244 25 295q0 79 -48.5 120t-173.5 41q-89 0 -142.5 -26.5t-89 -97.5t-52.5 -201q-25 -189 -25 -324z" />
<glyph unicode="e" horiz-adv-x="905" d="M90 289q0 294 76 512q21 60 52 102t64 66t80 37t87 16.5t98 3.5q87 0 144 -13.5t86.5 -41.5t40.5 -61.5t11 -82.5q0 -131 -31 -213t-110 -118q-60 -29 -143.5 -43.5t-257.5 -14.5h-58q-6 -76 -6 -147q0 -119 47 -158t179 -39q62 0 125.5 13t104 25.5t46.5 12.5 q10 0 15 -5.5t5 -24.5q0 -44 -9.5 -60.5t-37.5 -25.5q-123 -49 -278 -49q-92 0 -148.5 11.5t-100.5 44t-62.5 94t-18.5 159.5zM240 543h34q279 0 359 49q23 14 36 30t24.5 62.5t11.5 122.5q0 36 -10.5 56t-50 34t-114.5 14q-103 0 -156.5 -29t-82.5 -116q-35 -95 -51 -223z " />
<glyph unicode="f" horiz-adv-x="595" d="M-139 -336q0 31 9 50.5t21 19.5q8 0 51 -4t74 -4q46 0 67.5 10.5t34 45.5t19.5 112l103 999h-134q-22 0 -22 25q0 41 10 71q5 15 25 15h133l8 75q12 132 43 187q49 90 191 90q61 0 124 -13q28 -8 37 -15t9 -23q0 -74 -35 -74q-7 0 -50 6t-77 6q-42 0 -62 -10t-32.5 -43.5 t-20.5 -106.5l-8 -79h201q22 0 22 -25q0 -42 -10 -72q-5 -14 -27 -14h-192l-109 -1028q-14 -136 -68.5 -196t-177.5 -60q-52 0 -114 12q-25 6 -34 14.5t-9 28.5z" />
<glyph unicode="g" horiz-adv-x="989" d="M33 -322q0 16 2.5 31t11.5 29t23 14q11 0 47.5 -5.5t102 -11t145.5 -5.5q157 0 225 73.5t86 245.5l10 98q-108 -167 -336 -167q-138 0 -200 61t-62 199q0 131 27 352q31 237 126 335.5t267 98.5q66 0 114 -9t76.5 -26t45 -35t26.5 -43l6 50q4 26 18.5 34.5t53.5 8.5 q33 0 44 -8t11 -25q0 -6 -3.5 -44t-11 -111.5t-11.5 -119.5l-68 -632q-11 -109 -39.5 -190t-68.5 -131.5t-96 -81.5t-116.5 -42.5t-136.5 -11.5q-144 0 -276 22q-22 3 -32.5 12.5t-10.5 34.5zM221 260q0 -91 41.5 -128.5t130.5 -37.5q138 0 225.5 92t106.5 265 q27 243 27 297q0 79 -48.5 120t-173.5 41q-89 0 -142.5 -26.5t-89 -97.5t-52.5 -201q-25 -176 -25 -324z" />
<glyph unicode="h" horiz-adv-x="1032" d="M100 33q0 5 19 180l110 1069q3 33 17 42t55 9q38 0 51 -5.5t13 -24.5q0 -6 -15 -144l-31 -289q47 82 129 119t214 37q140 0 193.5 -51t53.5 -162q0 -39 -27.5 -286t-27.5 -324q0 -37 11.5 -98.5t11.5 -63.5q0 -23 -11.5 -32t-50.5 -9q-36 0 -48.5 7.5t-18.5 29.5 q-9 30 -17 82.5t-8 77.5q0 61 25.5 299.5t25.5 289.5q0 68 -33.5 95.5t-117.5 27.5q-162 0 -240 -84.5t-98 -277.5l-52 -500q-3 -30 -16 -38.5t-55 -8.5q-37 0 -49.5 6t-12.5 27z" />
<glyph unicode="i" horiz-adv-x="432" d="M123 197q0 40 22 282l48 479q3 29 17 38.5t54 9.5q36 0 50 -6.5t14 -26.5q0 -17 -36 -348.5t-36 -421.5q0 -37 10 -98.5t10 -63.5q0 -24 -11 -32.5t-50 -8.5q-35 0 -48.5 7.5t-19.5 29.5q-9 30 -16.5 82t-7.5 78zM215 1221q0 22 10 73q4 24 20.5 31.5t57.5 7.5 q40 0 55 -7.5t15 -31.5q0 -17 -11 -71q-4 -26 -20 -33.5t-59 -7.5q-38 0 -53 8t-15 31z" />
<glyph unicode="j" horiz-adv-x="413" d="M-193 -334q0 31 9.5 50.5t23.5 19.5q7 0 51 -5t78 -5q43 0 63.5 10t30.5 37q14 40 23 125l107 1060q5 29 18.5 38.5t52.5 9.5q36 0 50 -6.5t14 -26.5q0 -26 -31 -314l-84 -794q-14 -135 -67.5 -195.5t-168.5 -60.5q-56 0 -124 14q-25 6 -35.5 15.5t-10.5 27.5zM215 1221 q0 22 10 73q4 24 20.5 31.5t57.5 7.5q40 0 55 -7.5t15 -31.5q0 -17 -11 -71q-4 -26 -20 -33.5t-59 -7.5q-38 0 -53 8t-15 31z" />
<glyph unicode="k" horiz-adv-x="860" d="M100 33q0 5 15 143l114 1106q3 33 17 42t55 9q38 0 51 -5.5t13 -24.5q0 -11 -3 -37t-7 -59.5t-5 -47.5l-61 -586h12q74 62 187.5 183.5t164.5 195.5q24 37 38 45.5t54 8.5q64 0 64 -33q0 -49 -140.5 -199.5t-258.5 -251.5q58 -93 147.5 -206.5t153.5 -182.5 q12 -13 28 -28.5t24.5 -24t17.5 -18.5t12.5 -16.5t3.5 -12.5q0 -33 -58 -33q-51 0 -67.5 5t-42.5 30q-64 59 -169.5 195t-166.5 241h-17l-43 -424q-3 -30 -16 -38.5t-55 -8.5q-37 0 -49.5 6t-12.5 27z" />
<glyph unicode="l" horiz-adv-x="432" d="M123 197q0 50 22 282l82 807q3 30 17 38.5t55 8.5q37 0 50 -5.5t13 -24.5q0 -1 -14 -144l-65 -620q-27 -250 -27 -336q0 -37 10 -98.5t10 -63.5q0 -24 -11 -32.5t-50 -8.5q-35 0 -48.5 7.5t-19.5 29.5q-9 30 -16.5 82t-7.5 78z" />
<glyph unicode="m" horiz-adv-x="1572" d="M109 31q0 7 18 188q51 483 51 537q0 29 -10 115.5t-10 95.5q0 19 12.5 28t52.5 9q38 0 49.5 -6.5t14.5 -32.5l18 -136q88 197 342 197q123 0 178 -39.5t64 -126.5q94 166 315 166q140 0 194 -51t54 -162q0 -39 -29.5 -286t-29.5 -324q0 -37 11 -98.5t11 -63.5 q0 -24 -11 -32.5t-50 -8.5q-36 0 -49 7.5t-19 29.5q-9 30 -16.5 82t-7.5 78q0 61 28.5 299.5t28.5 289.5q0 68 -34 95.5t-120 27.5q-145 0 -211.5 -83.5t-87.5 -280.5l-51 -498q-3 -30 -16.5 -38.5t-55.5 -8.5q-37 0 -49 5.5t-12 25.5q0 5 6 65q74 686 74 690q0 68 -34 95.5 t-120 27.5q-148 0 -221.5 -85t-93.5 -279l-51 -498q-3 -30 -17 -38.5t-55 -8.5q-37 0 -49 5.5t-12 25.5z" />
<glyph unicode="n" horiz-adv-x="1036" d="M109 33l10 110q59 602 59 613q0 29 -10 115.5t-10 95.5q0 20 13 29.5t52 9.5q37 0 49 -7t15 -32l18 -140q46 106 130 152.5t233 46.5q140 0 193.5 -51t53.5 -162q0 -39 -29.5 -286t-29.5 -324q0 -37 11.5 -98.5t11.5 -63.5q0 -23 -11.5 -32t-50.5 -9q-36 0 -48.5 7.5 t-18.5 29.5q-9 30 -17 82.5t-8 77.5q0 61 28.5 299.5t28.5 289.5q0 68 -33.5 95.5t-119.5 27.5q-162 0 -239 -84.5t-97 -279.5l-51 -498q-3 -30 -17 -38.5t-55 -8.5q-37 0 -49 6t-12 27z" />
<glyph unicode="o" horiz-adv-x="978" d="M88 289q0 92 21 250t49 239q46 137 137.5 192.5t257.5 55.5q91 0 150 -12.5t103 -46.5t63.5 -95t19.5 -155q0 -93 -21 -251t-49 -239q-46 -137 -137.5 -192t-257.5 -55q-91 0 -150 12.5t-103 46.5t-63.5 95t-19.5 155zM221 293q0 -119 44 -158t169 -39q116 0 174 33 t88 123q21 61 40.5 216.5t19.5 244.5q0 120 -44 159t-169 39q-115 0 -173.5 -33.5t-88.5 -123.5q-21 -61 -40.5 -216.5t-19.5 -244.5z" />
<glyph unicode="p" horiz-adv-x="1028" d="M66 -354q0 2 14 141l72 684q24 226 24 283q0 26 -5 111.5t-5 103.5q0 20 11 28.5t46 8.5q36 0 49 -10t15 -35l10 -127q56 110 139.5 151t220.5 41q161 0 223 -60t62 -231q0 -123 -23 -293.5t-67 -263.5q-51 -106 -136.5 -152t-217.5 -46q-192 0 -256 106l-43 -426 q-3 -30 -16 -38.5t-54 -8.5q-36 0 -49.5 6t-13.5 27zM258 256q0 -79 51 -120.5t183 -41.5q96 0 153 30t88 105q35 84 54.5 241t19.5 249q0 115 -40.5 152.5t-150.5 37.5q-161 0 -235.5 -92t-97.5 -287q-25 -207 -25 -274z" />
<glyph unicode="q" horiz-adv-x="989" d="M88 240q0 131 27 352q31 237 126 335.5t267 98.5q66 0 114 -9t76.5 -26t45 -35t26.5 -43l6 50q4 26 18.5 34.5t53.5 8.5q33 0 44 -8t11 -25q0 -24 -14 -150l-121 -1163q-3 -30 -17 -38.5t-55 -8.5q-36 0 -49.5 6t-13.5 27q0 8 14 137l39 367q-108 -170 -336 -170 q-138 0 -200 61t-62 199zM221 260q0 -91 41.5 -128.5t130.5 -37.5q138 0 226.5 93t107.5 266q25 234 25 295q0 79 -48.5 120t-173.5 41q-89 0 -142.5 -26.5t-89 -97.5t-52.5 -201q-25 -176 -25 -324z" />
<glyph unicode="r" horiz-adv-x="700" d="M109 33q0 4 1 15.5t2.5 27.5t2.5 26l59 566q4 37 4 88q0 29 -10 115.5t-10 95.5q0 19 12.5 28t52.5 9q38 0 49.5 -6.5t14.5 -32.5l18 -140q47 102 124.5 150.5t193.5 48.5q43 0 57 -14q8 -12 8 -27q0 -39 -12 -63q-10 -17 -27 -17q-4 0 -23 1t-34 1q-128 0 -204 -89.5 t-97 -287.5l-49 -481q-3 -30 -17 -38.5t-55 -8.5q-37 0 -49 6t-12 27z" />
<glyph unicode="s" horiz-adv-x="813" d="M35 59q0 74 28 74q3 0 87.5 -19.5t168.5 -19.5q121 0 183 39q73 49 73 168q0 48 -18.5 75t-69.5 48l-213 90q-88 38 -126.5 90.5t-38.5 132.5q0 59 20.5 118t52.5 93q75 78 254 78q109 0 236 -31q25 -7 33 -17t8 -30q0 -29 -5.5 -45t-11.5 -19t-16 -3q-1 0 -89 15 t-163 15q-84 0 -123 -20q-26 -14 -42.5 -55t-16.5 -93q0 -40 17.5 -67.5t64.5 -46.5l209 -86q102 -42 139 -89t37 -124q0 -183 -105 -269q-94 -81 -295 -81q-126 0 -235 32q-26 7 -34.5 17.5t-8.5 29.5z" />
<glyph unicode="t" horiz-adv-x="641" d="M88 918q0 46 10 71q8 15 25 15h131l16 159q3 30 17 38.5t55 8.5q39 0 49 -8t10 -35q0 -26 -18 -163h201q22 0 22 -25q0 -39 -10 -72q-7 -14 -25 -14h-196l-66 -631q-6 -59 -6 -86q0 -50 17.5 -65t66.5 -15q33 0 75.5 6.5t47.5 6.5q17 0 22 -7.5t5 -29.5q0 -38 -10 -52.5 t-46 -23.5q-58 -16 -133 -16q-97 0 -137.5 40.5t-40.5 131.5q0 43 8 122l64 619h-131q-23 0 -23 25z" />
<glyph unicode="u" horiz-adv-x="1019" d="M125 190q0 61 37 318q31 214 31 291q0 37 -11.5 100t-11.5 66q0 24 12 32.5t51 8.5q35 0 47.5 -8.5t18.5 -32.5q25 -107 25 -162q0 -60 -33 -297t-33 -289q0 -69 34.5 -96t119.5 -27q160 0 233 86.5t94 286.5l49 491q3 29 17.5 38.5t54.5 9.5q36 0 50 -6.5t14 -26.5 q0 -28 -36 -355.5t-36 -363.5q0 -26 7 -113.5t7 -105.5q0 -19 -12 -27t-47 -8t-47.5 8t-14.5 29l-14 149q-44 -104 -130.5 -155t-229.5 -51q-137 0 -191.5 49.5t-54.5 160.5z" />
<glyph unicode="v" horiz-adv-x="860" d="M82 965q0 24 15.5 32.5t56.5 8.5q43 0 56.5 -11t20.5 -55q18 -103 65 -388t75 -435h20q126 282 320 823q17 45 32 55.5t60 10.5q33 0 46 -7.5t13 -25.5q0 -24 -59 -170q0 -1 -38.5 -98.5t-61.5 -153.5t-64 -154.5t-80 -185.5t-76 -162q-15 -30 -40.5 -39.5t-82.5 -9.5 q-55 0 -75.5 9.5t-26.5 43.5l-166 842q-10 51 -10 70z" />
<glyph unicode="w" horiz-adv-x="1392" d="M90 963q0 23 15.5 33t56.5 10q45 0 60 -10t16 -46q10 -90 29 -262.5t35 -314.5t32 -256h22l273 803q12 39 34 52t78 13q54 0 73 -13.5t24 -51.5q6 -37 110 -803h21q24 64 49.5 139.5t44 133.5t47 150t41 135t43.5 146.5t39 130.5q10 35 26.5 44.5t61.5 9.5q35 0 47 -7.5 t12 -25.5q0 -24 -49 -178q-122 -389 -262 -742q-13 -32 -38.5 -42.5t-82.5 -10.5q-60 0 -83 10.5t-27 44.5l-111 762h-12q-9 -28 -56 -169.5t-70.5 -210.5t-64.5 -183t-75 -201q-12 -32 -39.5 -42.5t-90.5 -10.5q-55 0 -77.5 9.5t-26.5 41.5l-117 832q-8 66 -8 80z" />
<glyph unicode="x" horiz-adv-x="860" d="M-8 31q0 21 26 53l322 442l-203 389q-18 35 -18 56q0 19 16 27t55 8q36 0 50.5 -7t23.5 -28l170 -344h8l238 338q15 25 30.5 33t49.5 8q42 0 56.5 -6.5t14.5 -24.5q0 -17 -34 -64l-291 -391l233 -434q17 -35 17 -49q0 -37 -72 -37q-34 0 -50 7.5t-26 29.5l-194 385h-8 l-265 -387q-14 -22 -31 -28.5t-51 -6.5q-67 0 -67 31z" />
<glyph unicode="y" horiz-adv-x="882" d="M-45 -328q0 66 37 66q5 0 51.5 -6t91.5 -6q64 0 103.5 28t74.5 109q3 8 25 58.5t33 78.5q-44 1 -63.5 17t-28.5 57l-177 794q-18 78 -18 97q0 21 16 32q22 9 56 9q38 0 50.5 -6t16.5 -27q14 -73 74 -371.5t100 -480.5h23q170 430 313 852q7 21 23 27t55 6q38 0 50.5 -8 t12.5 -25q0 -21 -30 -103q-61 -171 -199.5 -525t-228.5 -546q-46 -97 -111.5 -143.5t-167.5 -46.5q-86 0 -139 16q-23 6 -33 16t-10 31z" />
<glyph unicode="z" horiz-adv-x="782" d="M0 49q0 51 14 78q4 12 60 78q301 348 532 682h-434q-27 0 -27 24q0 46 13 76q6 17 26 17h539q24 0 31.5 -7.5t7.5 -29.5q0 -66 -33 -113q-295 -416 -571 -727h489q27 0 27 -25q0 -47 -12 -75q-6 -17 -27 -17h-596q-23 0 -31 8.5t-8 30.5z" />
<glyph unicode="{" horiz-adv-x="528" d="M76 590q0 46 14 67q7 19 31 19q51 0 76 25.5t32 86.5q5 46 18.5 196.5t22.5 221.5q10 83 47 123.5t127 40.5q56 0 156 -14q19 -3 26 -9.5t7 -23.5q0 -24 -9.5 -50t-27.5 -26q-15 0 -65.5 3t-81.5 3q-26 0 -37.5 -18t-16.5 -64q-6 -54 -16.5 -188t-18.5 -192 q-19 -155 -116 -168l-2 -9q44 -6 65 -41.5t21 -89.5q0 -29 -26 -222t-26 -232q0 -49 35 -49q45 0 92.5 2t55.5 2q16 0 22 -6t6 -25q0 -69 -38 -76q-66 -14 -164 -14q-78 0 -110 32.5t-32 106.5q0 54 26 242t26 233q0 84 -91 84q-15 0 -21.5 6t-6.5 23z" />
<glyph unicode="|" horiz-adv-x="313" d="M23 -358q0 21 4 57l170 1626q3 27 15 36t50 9q32 0 41.5 -6t9.5 -25q0 -21 -4 -57l-172 -1626q-3 -27 -14.5 -35t-48.5 -8q-31 0 -41 6t-10 23z" />
<glyph unicode="}" horiz-adv-x="528" d="M-68 -90q0 24 9.5 50t27.5 26q15 0 66 -3t82 -3q26 0 37 17.5t16 63.5q6 54 16.5 188.5t18.5 192.5q19 155 117 168l2 8q-44 6 -65 42t-21 90q0 29 25.5 222t25.5 232q0 49 -35 49q-45 0 -92.5 -2t-55.5 -2q-16 0 -22 6t-6 25q0 69 39 76q66 14 164 14q78 0 109.5 -32.5 t31.5 -106.5q0 -55 -25.5 -242t-25.5 -233q0 -44 22 -64t68 -20q15 0 21.5 -6t6.5 -23q0 -40 -14 -68q-9 -18 -31 -18q-51 0 -76 -26t-32 -87q-5 -46 -18.5 -196t-22.5 -221q-10 -83 -47 -123.5t-127 -40.5q-56 0 -156 14q-19 3 -26 9.5t-7 23.5z" />
<glyph unicode="~" d="M184 518q0 53 27 80q24 22 67 35.5t84 13.5q38 0 136 -23.5t133 -23.5q40 0 84.5 20.5t48.5 20.5q18 0 18 -31q0 -59 -26 -82q-24 -21 -66.5 -34t-83.5 -13q-40 0 -137 22.5t-131 22.5q-40 0 -84.5 -20.5t-48.5 -20.5q-21 0 -21 33z" />
<glyph unicode="&#xa1;" horiz-adv-x="372" d="M84 43q0 13 10 113l82 772q5 29 16.5 38t45.5 9q33 0 43 -9t10 -32q0 -6 -8 -107l-60 -780q-1 -28 -17 -37.5t-59 -9.5q-39 0 -51 9t-12 34zM182 1135q0 3 6 67q4 33 19 42t61 9q41 0 56.5 -7t15.5 -29q0 -11 -8 -68q-3 -32 -19 -41.5t-61 -9.5q-40 0 -55 7.5t-15 29.5z " />
<glyph unicode="&#xa2;" d="M147 471q0 84 18 196t50 199q38 103 109 144.5t184 46.5l16 153q3 26 16.5 34.5t51.5 8.5q34 0 44.5 -5.5t10.5 -22.5q0 -15 -6 -74l-10 -94q116 -11 170 -29q28 -9 36.5 -18t8.5 -29q0 -39 -8.5 -52.5t-24.5 -13.5q-7 0 -43 7.5t-92.5 15.5t-114.5 8q-102 0 -154 -25.5 t-77 -99.5q-49 -143 -49 -344q0 -91 46.5 -123t174.5 -32q61 0 121 12t97 23.5t42 11.5q18 0 18 -31q0 -44 -10 -60t-37 -26q-101 -37 -207 -45l-16 -164q-3 -26 -16.5 -34.5t-51.5 -8.5q-33 0 -44 6t-11 23q0 15 6 71l13 107q-135 8 -198 67.5t-63 196.5z" />
<glyph unicode="&#xa3;" d="M127 590q0 37 8 61q8 21 33 21h117l28 276q19 171 93.5 243.5t242.5 72.5q109 0 234 -27q26 -7 32.5 -14.5t6.5 -24.5q0 -76 -31 -76q-4 0 -82.5 12.5t-146.5 12.5q-118 0 -162.5 -43.5t-57.5 -177.5l-26 -254h166q26 0 26 -27q0 -42 -10 -59q-8 -23 -33 -23h-162 l-10 -108q-18 -203 -94 -332h528q15 0 22 -7.5t7 -27.5q0 -51 -10 -69.5t-31 -18.5h-625q-31 0 -42 6t-11 25q0 33 25 82.5t55.5 126.5t40.5 168l16 155h-122q-25 0 -25 27z" />
<glyph unicode="&#xa4;" d="M176 160q0 18 23 57l63 109q-43 40 -43 137q0 74 13 149t40 117q22 32 41 47l-39 111q-14 38 -14 55q0 25 57 25q38 0 52 -5.5t20 -25.5l37 -115q43 6 94 6q36 0 86 -4l64 113q10 20 25 25.5t55 5.5q55 0 55 -21q0 -17 -23 -59l-63 -107q43 -40 43 -137q0 -74 -13 -150 t-40 -118q-20 -29 -43 -47l41 -111q14 -38 14 -55q0 -23 -59 -23q-37 0 -50 5t-20 24l-39 117q-43 -6 -92 -6q-61 0 -86 4l-64 -115q-10 -19 -25 -24t-55 -5q-55 0 -55 21zM340 477q0 -60 27.5 -77t105.5 -17q53 0 81.5 9.5t47.5 37.5q37 60 37 197q0 61 -26 77.5t-105 16.5 q-53 0 -81.5 -9.5t-47.5 -37.5q-17 -26 -28 -82t-11 -115z" />
<glyph unicode="&#xa5;" d="M164 1223q0 19 15.5 24.5t51.5 5.5q43 0 57 -5.5t21 -26.5l203 -533h8l316 533q12 20 28.5 26t57.5 6q35 0 48 -5.5t13 -20.5q0 -20 -22 -53l-375 -584h192q25 0 25 -29q0 -37 -8 -61q-11 -23 -33 -23h-205l-14 -121h209q15 0 20.5 -5.5t5.5 -20.5q0 -38 -8 -62 q-10 -22 -33 -22h-205l-20 -199q-3 -28 -17 -37.5t-55 -9.5q-36 0 -47.5 6.5t-11.5 26.5q0 17 4 53l16 160h-208q-14 0 -19.5 5.5t-5.5 22.5q0 38 8 62q8 20 33 20h203l14 121h-209q-24 0 -24 29q0 37 8 61q11 23 32 23h187l-238 573q-18 50 -18 60z" />
<glyph unicode="&#xa6;" horiz-adv-x="313" d="M23 -358q0 21 12 131l61 589q3 27 15.5 36.5t50.5 9.5q31 0 41 -6t10 -23q0 -21 -12 -131l-64 -592q-3 -27 -14.5 -35t-48.5 -8q-31 0 -41 6t-10 23zM123 604q0 21 12 131l62 590q3 27 15 36t50 9q31 0 41 -6t10 -23q0 -21 -12 -131l-63 -592q-3 -27 -14.5 -35t-49.5 -8 q-31 0 -41 6t-10 23z" />
<glyph unicode="&#xa7;" horiz-adv-x="909" d="M10 -307q0 76 39 76q2 0 106 -21.5t195 -21.5q173 0 228 53q32 30 48.5 90t16.5 106q0 54 -21 87t-67 55l-254 114q-106 47 -147 95.5t-41 138.5q0 63 14 129.5t47 103.5q19 22 53 37q-67 53 -67 158q0 71 20 142.5t53 117.5q42 60 111.5 85.5t185.5 25.5q68 0 155 -11 t144 -28q24 -6 33.5 -15.5t9.5 -29.5q0 -44 -9 -61t-27 -17q-7 0 -51 11t-111.5 22.5t-132.5 11.5q-92 0 -138 -14t-71 -56q-37 -60 -37 -170q0 -40 19 -65t71 -49l277 -123q89 -40 124 -92.5t35 -137.5q0 -70 -16.5 -139.5t-52.5 -101.5q-24 -20 -43 -27q67 -59 67 -172 q0 -84 -31 -175.5t-88 -137.5q-100 -78 -299 -78q-189 0 -301 37q-30 10 -38.5 19.5t-8.5 27.5zM246 487q0 -49 21 -79t75 -54l276 -127q68 51 68 191q0 99 -86 137q-25 11 -101 45t-130 58t-58 26q-65 -46 -65 -197z" />
<glyph unicode="&#xa8;" horiz-adv-x="536" d="M158 1221q0 24 10 73q4 24 19.5 31.5t56.5 7.5q38 0 49.5 -7.5t11.5 -31.5q0 -22 -10 -71q-4 -26 -19.5 -33.5t-56.5 -7.5q-38 0 -49.5 7.5t-11.5 31.5zM418 1221q0 8 10 73q6 24 21 31.5t57 7.5q37 0 49 -8t12 -31q0 -22 -10 -71q-4 -26 -19.5 -33.5t-56.5 -7.5 q-38 0 -50.5 8t-12.5 31z" />
<glyph unicode="&#xa9;" horiz-adv-x="1845" d="M100 645q0 104 5 187t17.5 165.5t34.5 145.5t55.5 122t80 101.5t109.5 78.5t142.5 57.5t180 33.5t221.5 12q136 0 245.5 -14t194 -44.5t148 -71t108 -100.5t73.5 -126.5t45.5 -156t23 -181t6.5 -209.5t-6.5 -209.5t-23 -181t-45.5 -156t-73.5 -126.5t-108 -100.5 t-148 -71t-194 -44.5t-245.5 -14q-121 0 -221.5 12t-180 33.5t-142.5 57.5t-109.5 78.5t-80 101.5t-55.5 122t-34.5 145.5t-17.5 165.5t-5 187zM227 651q0 -155 11 -264t41 -202.5t80.5 -151.5t131.5 -100t191.5 -59t263.5 -17q114 0 203.5 9.5t162 32t126 54t93 81 t64.5 107.5t40.5 138.5t21.5 168.5t6 203q0 151 -11 258t-41 199.5t-80.5 150.5t-131 99t-191 58.5t-262.5 17.5t-263 -17.5t-192 -58.5t-131.5 -99t-80.5 -150.5t-41 -199t-11 -258.5zM575 635q0 104 10 185t26.5 137t45 95.5t58 62t73 35t82 16t93.5 3.5q106 0 243 -36 q29 -8 39 -21t10 -45q0 -33 -6 -43t-20 -10q-1 0 -98 20.5t-166 20.5q-51 0 -84.5 -5t-64.5 -20.5t-49 -42.5t-31.5 -73t-19 -110t-5.5 -155q0 -95 2.5 -153t13 -108t26.5 -75t47.5 -43t70 -23t100.5 -5t120 11t95 22.5t47 11.5q22 0 22 -54q0 -30 -9.5 -42t-39.5 -23 q-50 -19 -124 -32t-132 -13q-73 0 -122 6.5t-94.5 25.5t-72.5 54t-48 92t-29.5 138.5t-8.5 195.5z" />
<glyph unicode="&#xaa;" horiz-adv-x="708" d="M88 709q0 105 21 274q20 149 89 215t193 66q57 0 95.5 -12.5t56 -29.5t28.5 -42l4 39q3 20 14 26t44 6q28 0 37.5 -5.5t9.5 -18.5q0 -17 -23.5 -245t-23.5 -263q0 -19 4 -83t4 -77t-9 -18.5t-38 -5.5q-31 0 -40 5t-11 21l-8 109q-74 -152 -256 -152q-100 0 -145.5 45 t-45.5 146zM201 731q0 -68 22 -89t88 -21q101 0 156 58.5t70 184.5q14 122 14 197q0 39 -8.5 59.5t-40 33.5t-94.5 13q-97 0 -139 -40.5t-54 -163.5q-14 -140 -14 -232z" />
<glyph unicode="&#xab;" horiz-adv-x="1146" d="M76 475q0 56 14 96q12 33 45 52l406 266q30 20 45 20q22 0 22 -39q0 -42 -9.5 -69t-39.5 -47l-342 -234l-2 -16l293 -234q31 -24 31 -55q0 -92 -35 -92q-15 0 -41 20l-346 263q-23 16 -32 30.5t-9 38.5zM590 475q0 56 14 96q12 31 43 52l406 286q30 21 45 21q22 0 22 -39 q0 -42 -9.5 -69t-39.5 -48l-340 -254l-2 -16l289 -254q31 -24 31 -55q0 -93 -35 -93q-13 0 -43 23l-340 281q-24 19 -32.5 32.5t-8.5 36.5z" />
<glyph unicode="&#xac;" d="M182 532q0 40 8 68q10 23 37 23h510q31 0 42.5 -6.5t11.5 -24.5q0 -2 -1.5 -13.5t-3.5 -33t-4 -35.5l-16 -170q-3 -28 -17 -37.5t-51 -9.5q-34 0 -46.5 7t-12.5 26q0 14 4 51l12 125h-446q-15 0 -21 6.5t-6 23.5z" />
<glyph unicode="&#xad;" horiz-adv-x="616" d="M76 516q0 48 10 68q10 24 35 24h405q18 0 23.5 -6t5.5 -24q0 -45 -10 -68q-8 -25 -35 -25h-406q-15 0 -21.5 7t-6.5 24z" />
<glyph unicode="&#xae;" horiz-adv-x="1845" d="M100 645q0 104 5 187t17.5 165.5t34.5 145.5t55.5 122t80 101.5t109.5 78.5t142.5 57.5t180 33.5t221.5 12q136 0 245.5 -14t194 -44.5t148 -71t108 -100.5t73.5 -126.5t45.5 -156t23 -181t6.5 -209.5t-6.5 -209.5t-23 -181t-45.5 -156t-73.5 -126.5t-108 -100.5 t-148 -71t-194 -44.5t-245.5 -14q-121 0 -221.5 12t-180 33.5t-142.5 57.5t-109.5 78.5t-80 101.5t-55.5 122t-34.5 145.5t-17.5 165.5t-5 187zM227 651q0 -155 11 -264t41 -202.5t80.5 -151.5t131.5 -100t191.5 -59t263.5 -17q114 0 203.5 9.5t162 32t126 54t93 81 t64.5 107.5t40.5 138.5t21.5 168.5t6 203q0 151 -11 258t-41 199.5t-80.5 150.5t-131 99t-191 58.5t-262.5 17.5t-263 -17.5t-192 -58.5t-131.5 -99t-80.5 -150.5t-41 -199t-11 -258.5zM598 190v910q0 52 55 59q141 19 279 19q80 0 132.5 -3.5t99.5 -15t73.5 -30.5t46.5 -52 t27.5 -78t7.5 -110q0 -142 -42.5 -210.5t-158.5 -92.5l217 -375q15 -29 15 -39q0 -29 -66 -29q-42 0 -55.5 6t-24.5 27l-209 395h-262v-381q0 -28 -13 -37.5t-54 -9.5t-54.5 9.5t-13.5 37.5zM733 680h193q59 0 95 2t67.5 10.5t47.5 21.5t27.5 38t15 57t3.5 82 q0 107 -47 137.5t-205 30.5q-105 0 -197 -10v-369z" />
<glyph unicode="&#xaf;" horiz-adv-x="532" d="M143 1223q0 50 9.5 68t31.5 18h328q15 0 22 -7.5t7 -27.5q0 -49 -10 -67.5t-31 -18.5h-328q-15 0 -22 7.5t-7 27.5z" />
<glyph unicode="&#xb0;" horiz-adv-x="641" d="M100 895q0 207 60 289q32 43 88.5 61.5t152.5 18.5q134 0 186 -44t52 -149q0 -208 -59 -289q-32 -43 -89 -61.5t-153 -18.5q-135 0 -186.5 44t-51.5 149zM223 911q0 -62 26 -84t97 -22q64 0 94.5 10t46.5 45q12 26 20.5 83t8.5 112q0 62 -26 84t-97 22q-64 0 -94.5 -10 t-46.5 -45q-12 -26 -20.5 -83t-8.5 -112z" />
<glyph unicode="&#xb1;" d="M180 106q0 42 10 62q10 22 35 22h451q15 0 20.5 -5.5t5.5 -22.5q0 -38 -8 -62q-10 -22 -35 -22h-450q-16 0 -22.5 5.5t-6.5 22.5zM193 575q0 42 10 62q8 25 30 25h205l25 212q3 27 15 36.5t46 9.5q32 0 44 -7t12 -24q0 -4 -5 -55l-18 -172h207q27 0 27 -29t-11 -62 q-11 -22 -32 -22h-203l-23 -213q-3 -26 -15.5 -34.5t-47.5 -8.5q-33 0 -44.5 6t-11.5 25q0 4 5 55l18 170h-207q-14 0 -20 5.5t-6 20.5z" />
<glyph unicode="&#xb2;" horiz-adv-x="692" d="M121 635q0 25 6 55q6 35 63 92l236 219q47 46 73.5 88.5t26.5 94.5q0 40 -22.5 54.5t-77.5 14.5q-56 0 -115.5 -15t-62.5 -15q-13 0 -19 6t-6 24q0 35 9 52.5t40 25.5q115 27 179 27q98 0 147 -31t49 -115t-32.5 -143t-100.5 -123l-250 -237h314q14 0 19 -6t5 -23 q0 -74 -33 -74h-407q-41 0 -41 29z" />
<glyph unicode="&#xb3;" horiz-adv-x="645" d="M102 662q0 20 7 40.5t22 20.5q3 0 69 -13.5t124 -13.5q75 0 113 31t38 117q0 32 -11.5 51t-54 32t-120.5 13q-20 0 -27.5 6t-7.5 27q0 34 10.5 47.5t34.5 13.5q62 0 101 9.5t59 30t26.5 45.5t6.5 65q0 42 -23 56.5t-82 14.5q-52 0 -114.5 -14t-67.5 -14q-7 0 -10.5 1 t-6 7t-2.5 18q0 35 10 53t40 25q116 27 182 27q46 0 78.5 -6t59.5 -21.5t40.5 -45t13.5 -73.5q0 -106 -37 -159.5t-127 -65.5q83 -3 115.5 -41.5t32.5 -105.5q0 -246 -266 -246q-90 0 -191 29q-18 5 -26.5 13t-8.5 26z" />
<glyph unicode="&#xb4;" horiz-adv-x="399" d="M152 1128q0 18 20 48l127 200q13 23 29.5 31t60.5 8t57 -6t13 -20q0 -17 -27 -56l-143 -192q-15 -21 -30.5 -28t-55.5 -7q-30 0 -40.5 5t-10.5 17z" />
<glyph unicode="&#xb5;" horiz-adv-x="1036" d="M68 -356q0 19 4 55l90 868q24 221 24 232q0 37 -10 100t-10 66q0 24 12 32.5t49 8.5q34 0 48 -8t20 -29q9 -29 15.5 -80.5t6.5 -79.5q0 -64 -26.5 -302.5t-26.5 -289.5q0 -67 39.5 -95t126.5 -28q156 0 230.5 82.5t93.5 261.5l53 520q3 29 17.5 38.5t54.5 9.5 q36 0 49.5 -6.5t13.5 -26.5q0 -26 -39 -377q-33 -291 -33 -342q0 -26 7.5 -113.5t7.5 -105.5t-12.5 -26.5t-47.5 -8.5q-34 0 -46.5 8t-14.5 29l-14 139q-50 -104 -135.5 -150t-215.5 -46q-115 0 -163 34l-37 -354q-3 -28 -17 -37.5t-55 -9.5q-35 0 -47 6t-12 25z" />
<glyph unicode="&#xb6;" horiz-adv-x="1019" d="M76 -330q0 27 8 51.5t27 24.5q7 0 96 -8t164 -8q157 0 225.5 72.5t87.5 244.5l115 1083h-172l-82 -745q-6 -50 -37 -55q-89 -21 -189 -21q-121 0 -175 64t-54 188q0 123 27.5 303t77.5 258q51 78 124 104.5t179 26.5h557q16 0 22 -6.5t6 -27.5q0 -51 -10.5 -70t-30.5 -19 h-114l-113 -1064q-11 -109 -40 -190t-69 -131.5t-97.5 -81.5t-120 -42.5t-142.5 -11.5q-142 0 -227 14q-23 5 -33 14t-10 33z" />
<glyph unicode="&#xb7;" horiz-adv-x="333" d="M109 512q0 8 6 72q3 32 19 41.5t61 9.5q40 0 54.5 -7t14.5 -30q0 -8 -6 -72q-3 -32 -19 -41.5t-61 -9.5q-40 0 -54.5 7t-14.5 30z" />
<glyph unicode="&#xb8;" horiz-adv-x="358" d="M-43 -352q0 25 9.5 45t25.5 20q6 0 34.5 -3t57.5 -3q24 0 35.5 2t21 12.5t9.5 30.5q0 19 -48 51q-31 21 -43 38.5t-12 45.5q0 25 4 54l10 90h97l-6 -64q-1 -6 -2 -15.5t-2 -15t-1 -8.5q0 -22 27 -41q62 -42 82 -66t20 -67q0 -157 -178 -157q-55 0 -106 14q-19 5 -27 12.5 t-8 24.5z" />
<glyph unicode="&#xb9;" horiz-adv-x="606" d="M125 635q0 74 35 74h129l53 530l-104 -31q-42 -12 -54 -12q-18 0 -18 33q0 56 29 67l149 50q29 10 72 10q28 0 38.5 -6.5t10.5 -28.5q0 -13 -12 -123l-54 -489h129q23 0 23 -29q0 -74 -33 -74h-366q-15 0 -21 6t-6 23z" />
<glyph unicode="&#xba;" horiz-adv-x="694" d="M102 756q0 115 23.5 245.5t73.5 182.5q74 80 233 80q62 0 106 -10t80 -35t54 -72.5t18 -118.5q0 -116 -23 -246t-71 -184q-74 -80 -236 -80q-62 0 -106 10t-80 35.5t-54 73.5t-18 119zM219 764q0 -87 37 -116.5t117 -29.5q102 0 145 64q24 40 39.5 141t15.5 197 q0 86 -36 114.5t-117 28.5q-54 0 -88.5 -13.5t-57.5 -49.5q-24 -38 -39.5 -139t-15.5 -197z" />
<glyph unicode="&#xbb;" horiz-adv-x="1146" d="M72 141q0 42 9.5 69t39.5 48l340 254l2 16l-289 254q-31 24 -31 56q0 92 35 92q13 0 43 -23l340 -280q23 -19 32 -33t9 -37q0 -56 -14 -96q-12 -29 -43 -51l-406 -287q-30 -21 -45 -21q-22 0 -22 39zM584 162q0 42 9.5 69.5t39.5 47.5l342 233l2 16l-293 234 q-31 24 -31 55q0 92 35 92q15 0 41 -20l346 -262q41 -28 41 -70q0 -56 -14 -96q-11 -32 -45 -51l-406 -267q-30 -20 -45 -20q-22 0 -22 39z" />
<glyph unicode="&#xbc;" horiz-adv-x="1497" d="M111 537q0 73 34 73h129l54 531l-105 -31q-42 -12 -53 -12q-18 0 -18 32q0 58 28 68l150 49q29 10 71 10q29 0 39.5 -6t10.5 -28q0 -3 -13 -123l-53 -490h129q23 0 23 -28q0 -74 -33 -74h-367q-15 0 -20.5 6t-5.5 23zM432 23q0 11 19 53l555 1155q9 22 23 28.5t48 6.5 q45 0 45 -23q0 -11 -18 -51l-555 -1157q-9 -20 -24.5 -27.5t-49.5 -7.5q-43 0 -43 23zM829 195q0 64 27 100l320 426q13 18 35.5 24.5t68.5 6.5q35 0 49 -7t14 -28q0 -15 -10 -105l-39 -350h80q25 0 25 -31q0 -65 -35 -65h-80l-12 -123q-3 -25 -16 -34t-46 -9q-29 0 -39 6.5 t-10 24.5q0 1 6 65l9 70h-322q-25 0 -25 29zM950 262h238l43 383z" />
<glyph unicode="&#xbd;" horiz-adv-x="1492" d="M111 537q0 73 34 73h129l54 531l-105 -31q-42 -12 -53 -12q-18 0 -18 32q0 58 28 68l150 49q29 10 71 10q29 0 39.5 -6t10.5 -28q0 -3 -13 -123l-53 -490h129q23 0 23 -28q0 -74 -33 -74h-367q-15 0 -20.5 6t-5.5 23zM432 23q0 11 19 53l555 1155q9 22 23 28.5t48 6.5 q45 0 45 -23q0 -11 -18 -51l-555 -1157q-9 -20 -24.5 -27.5t-49.5 -7.5q-43 0 -43 23zM897 29q0 25 6 55q6 34 64 92l235 219q48 46 74.5 88.5t26.5 94.5q0 40 -23 54.5t-78 14.5q-56 0 -115.5 -15.5t-62.5 -15.5q-25 0 -25 31q0 35 9.5 52.5t40.5 25.5q115 27 178 27 q98 0 147 -31t49 -115t-32.5 -143t-100.5 -123l-250 -238h314q14 0 19 -5.5t5 -22.5q0 -74 -32 -74h-408q-41 0 -41 29z" />
<glyph unicode="&#xbe;" horiz-adv-x="1495" d="M100 561q0 20 7 41t22 21q3 0 69 -13.5t124 -13.5q75 0 113 30.5t38 116.5q0 32 -11.5 51t-54 32.5t-120.5 13.5q-20 0 -27.5 5.5t-7.5 26.5q0 34 10.5 48t34.5 14q62 0 101 9t58.5 30t26 45.5t6.5 64.5q0 42 -23 57t-81 15q-52 0 -114.5 -14.5t-67.5 -14.5 q-10 0 -14.5 5t-4.5 22q0 36 9.5 53.5t39.5 24.5q112 26 183 26q95 0 143.5 -30.5t48.5 -114.5q0 -106 -37 -159.5t-127 -65.5q83 -3 115.5 -42t32.5 -106q0 -245 -266 -245q-93 0 -191 28q-18 5 -26.5 13t-8.5 26zM430 23q0 11 19 53l555 1155q9 22 23 28.5t48 6.5 q45 0 45 -23q0 -11 -18 -51l-555 -1157q-9 -20 -24.5 -27.5t-49.5 -7.5q-43 0 -43 23zM827 195q0 64 27 100l320 426q13 18 35.5 24.5t68.5 6.5q35 0 49 -7t14 -28q0 -15 -10 -105l-39 -350h80q25 0 25 -31q0 -65 -35 -65h-80l-12 -123q-3 -25 -16 -34t-46 -9q-29 0 -39 6.5 t-10 24.5q0 1 6 65l9 70h-322q-25 0 -25 29zM948 262h238l43 383z" />
<glyph unicode="&#xbf;" horiz-adv-x="722" d="M16 209q0 106 32 179t114 151l166 161q31 29 48 64.5t25 103.5l7 62q2 28 15 37.5t52 9.5q35 0 48.5 -8.5t13.5 -28.5q0 -1 -0.5 -4.5t-1.5 -11t-2 -17t-3 -27t-4 -36.5q-9 -72 -32 -117t-70 -90l-184 -182q-86 -83 -86 -228q0 -74 40 -95t156 -21q62 0 126 10.5 t105.5 20.5t49.5 10q13 0 19.5 -6t6.5 -25q0 -70 -34 -82q-134 -47 -304 -47q-55 0 -94 3.5t-81 16.5t-68 35.5t-43 63.5t-17 98zM418 1137q0 3 6 67q3 33 18.5 42t61.5 9q40 0 54.5 -7t14.5 -29q0 -3 -6 -68q-3 -32 -19 -41.5t-61 -9.5q-40 0 -54.5 7t-14.5 30z" />
<glyph unicode="&#xc0;" horiz-adv-x="1046" d="M6 27q0 19 12 47l471 1124q15 37 36.5 46t92.5 9t90.5 -8.5t26.5 -46.5l228 -1096q10 -54 10 -67q0 -20 -14.5 -27.5t-53.5 -7.5q-40 0 -52.5 7.5t-18.5 33.5l-72 354h-467l-148 -360q-8 -21 -22.5 -28t-54.5 -7q-64 0 -64 27zM340 506h403l-122 629h-25zM381 1624 q0 18 14 24.5t58 6.5t60.5 -8t25.5 -31q143 -224 143 -244q0 -15 -12 -20.5t-41 -5.5q-41 0 -56 7t-28 27l-137 189q-27 39 -27 55z" />
<glyph unicode="&#xc1;" horiz-adv-x="1046" d="M6 27q0 19 12 47l471 1124q15 37 36.5 46t92.5 9t90.5 -8.5t26.5 -46.5l228 -1096q10 -54 10 -67q0 -20 -14.5 -27.5t-53.5 -7.5q-40 0 -52.5 7.5t-18.5 33.5l-72 354h-467l-148 -360q-8 -21 -22.5 -28t-54.5 -7q-64 0 -64 27zM340 506h403l-122 629h-25zM567 1368 q0 16 21 47l127 201q13 23 29.5 31t60.5 8q43 0 56 -6.5t13 -20.5q0 -17 -26 -55l-143 -193q-14 -20 -30 -27t-57 -7q-30 0 -40.5 5t-10.5 17z" />
<glyph unicode="&#xc2;" horiz-adv-x="1046" d="M6 27q0 19 12 47l471 1124q15 37 36.5 46t92.5 9t90.5 -8.5t26.5 -46.5l228 -1096q10 -54 10 -67q0 -20 -14.5 -27.5t-53.5 -7.5q-40 0 -52.5 7.5t-18.5 33.5l-72 354h-467l-148 -360q-8 -21 -22.5 -28t-54.5 -7q-64 0 -64 27zM340 506h403l-122 629h-25zM379 1368 q0 16 24 49l146 199q18 23 34.5 31t53.5 8h43q37 0 51 -7.5t25 -29.5l104 -205q17 -34 17 -43q0 -24 -54 -24q-36 0 -51.5 6.5t-26.5 25.5l-92 170h-10l-125 -170q-15 -19 -35 -25.5t-59 -6.5q-27 0 -36 5t-9 17z" />
<glyph unicode="&#xc3;" horiz-adv-x="1046" d="M6 27q0 19 12 47l471 1124q15 37 36.5 46t92.5 9t90.5 -8.5t26.5 -46.5l228 -1096q10 -54 10 -67q0 -20 -14.5 -27.5t-53.5 -7.5q-40 0 -52.5 7.5t-18.5 33.5l-72 354h-467l-148 -360q-8 -21 -22.5 -28t-54.5 -7q-64 0 -64 27zM340 506h403l-122 629h-25zM365 1427 q0 38 11 59t42 38q58 32 121 32q42 0 103.5 -21.5t92.5 -21.5q39 0 83 19.5t48 19.5q19 0 19 -24q0 -38 -11.5 -58.5t-42.5 -37.5q-59 -33 -122 -33q-41 0 -102 21.5t-93 21.5q-40 0 -83.5 -19.5t-47.5 -19.5q-10 0 -14 5t-4 19z" />
<glyph unicode="&#xc4;" horiz-adv-x="1046" d="M6 27q0 19 12 47l471 1124q15 37 36.5 46t92.5 9t90.5 -8.5t26.5 -46.5l228 -1096q10 -54 10 -67q0 -20 -14.5 -27.5t-53.5 -7.5q-40 0 -52.5 7.5t-18.5 33.5l-72 354h-467l-148 -360q-8 -21 -22.5 -28t-54.5 -7q-64 0 -64 27zM340 506h403l-122 629h-25zM432 1460 q0 25 10 74q4 24 19.5 31.5t56.5 7.5q38 0 50 -8t12 -31q0 -18 -11 -72q-4 -26 -19 -33.5t-56 -7.5q-38 0 -50 8t-12 31zM692 1460q0 9 10 74q6 24 21 31.5t57 7.5q37 0 49.5 -8t12.5 -31q0 -18 -11 -72q-4 -26 -19 -33.5t-56 -7.5q-38 0 -51 8t-13 31z" />
<glyph unicode="&#xc5;" horiz-adv-x="1046" d="M6 27q0 19 12 47l471 1124q15 37 36.5 46t92.5 9t90.5 -8.5t26.5 -46.5l228 -1096q10 -54 10 -67q0 -20 -14.5 -27.5t-53.5 -7.5q-40 0 -52.5 7.5t-18.5 33.5l-72 354h-467l-148 -360q-8 -21 -22.5 -28t-54.5 -7q-64 0 -64 27zM340 506h403l-122 629h-25zM424 1509 q0 46 8 80t30 65.5t67 48.5t112 17q112 0 150 -32t38 -99q0 -46 -8 -80t-30 -65.5t-67 -48.5t-112 -17q-112 0 -150 32t-38 99zM532 1524q0 -30 17 -40.5t69 -10.5q62 0 82.5 21.5t20.5 80.5q0 30 -17 40.5t-69 10.5q-62 0 -82.5 -21.5t-20.5 -80.5z" />
<glyph unicode="&#xc6;" horiz-adv-x="1443" d="M6 27q0 11 17 53l466 1118q15 37 36.5 46t92.5 9h789q16 0 22.5 -6.5t6.5 -27.5q0 -51 -10.5 -70t-30.5 -19h-496l-43 -407h387q16 0 22.5 -7t6.5 -26q0 -52 -9.5 -69t-31.5 -17h-389l-49 -481h514q15 0 21.5 -7.5t6.5 -27.5q0 -51 -10 -69.5t-31 -18.5h-592 q-28 0 -38.5 8.5t-10.5 26.5q0 10 13 137l22 223h-393l-148 -360q-8 -21 -22.5 -28t-54.5 -7q-64 0 -64 27zM340 506h358l68 629h-170z" />
<glyph unicode="&#xc7;" horiz-adv-x="933" d="M102 344q0 96 22.5 296.5t45.5 293.5q22 89 52.5 150.5t64.5 96.5t84.5 54t97 24t117.5 5q166 0 291 -39q24 -5 34.5 -13t10.5 -26q0 -80 -37 -80q-7 0 -51 10t-110 20.5t-126 10.5q-42 0 -69.5 -1.5t-57.5 -6.5t-49.5 -15t-39.5 -26t-34 -40.5t-26.5 -58.5t-22.5 -79 q-21 -92 -41 -281t-20 -279q0 -72 11 -120t29 -76.5t53.5 -43t71 -18.5t95.5 -4q97 0 191 20.5t97 20.5q23 0 23 -26q0 -43 -12 -63t-45 -30q-93 -34 -252 -38q-4 -33 -4 -54q0 -23 26 -41q62 -43 82.5 -66.5t20.5 -66.5q0 -157 -179 -157q-55 0 -106 14q-19 5 -27 12.5 t-8 24.5q0 25 9.5 45t25.5 20q6 0 34.5 -3t57.5 -3q24 0 35.5 2t21 12.5t9.5 30.5t-47 51q-31 22 -43.5 39t-12.5 45q0 25 8 97q-56 2 -97 10.5t-81.5 31.5t-66 61t-41 103t-15.5 154z" />
<glyph unicode="&#xc8;" horiz-adv-x="929" d="M102 31l9 88l112 1089q3 27 15 36t47 9h608q16 0 21.5 -6.5t5.5 -27.5q0 -52 -9.5 -70.5t-31.5 -18.5h-531l-43 -407h424q16 0 22.5 -7t6.5 -26q0 -52 -9.5 -69t-31.5 -17h-424l-49 -481h549q15 0 21.5 -7.5t6.5 -27.5q0 -51 -10 -69.5t-31 -18.5h-628q-29 0 -39.5 7 t-10.5 24zM377 1624q0 18 14 24.5t58 6.5t60.5 -8t25.5 -31q143 -224 143 -244q0 -15 -12 -20.5t-41 -5.5q-41 0 -56 7t-28 27l-138 189q-26 38 -26 55z" />
<glyph unicode="&#xc9;" horiz-adv-x="929" d="M102 31l9 88l112 1089q3 27 15 36t47 9h608q16 0 21.5 -6.5t5.5 -27.5q0 -52 -9.5 -70.5t-31.5 -18.5h-531l-43 -407h424q16 0 22.5 -7t6.5 -26q0 -52 -9.5 -69t-31.5 -17h-424l-49 -481h549q15 0 21.5 -7.5t6.5 -27.5q0 -51 -10 -69.5t-31 -18.5h-628q-29 0 -39.5 7 t-10.5 24zM451 1368q0 17 20 47l127 201q13 23 29.5 31t60.5 8q43 0 56.5 -6.5t13.5 -20.5q0 -16 -27 -55l-143 -193q-15 -20 -30.5 -27t-55.5 -7q-30 0 -40.5 5t-10.5 17z" />
<glyph unicode="&#xca;" horiz-adv-x="929" d="M102 31l9 88l112 1089q3 27 15 36t47 9h608q16 0 21.5 -6.5t5.5 -27.5q0 -52 -9.5 -70.5t-31.5 -18.5h-531l-43 -407h424q16 0 22.5 -7t6.5 -26q0 -52 -9.5 -69t-31.5 -17h-424l-49 -481h549q15 0 21.5 -7.5t6.5 -27.5q0 -51 -10 -69.5t-31 -18.5h-628q-29 0 -39.5 7 t-10.5 24zM334 1368q0 16 24 49l146 199q18 23 34.5 31t53.5 8h43q37 0 51 -7.5t25 -29.5l104 -205q16 -32 16 -43q0 -24 -53 -24q-36 0 -51.5 6.5t-26.5 25.5l-92 170h-10l-125 -170q-15 -19 -35 -25.5t-59 -6.5q-27 0 -36 5t-9 17z" />
<glyph unicode="&#xcb;" horiz-adv-x="929" d="M102 31l9 88l112 1089q3 27 15 36t47 9h608q16 0 21.5 -6.5t5.5 -27.5q0 -52 -9.5 -70.5t-31.5 -18.5h-531l-43 -407h424q16 0 22.5 -7t6.5 -26q0 -52 -9.5 -69t-31.5 -17h-424l-49 -481h549q15 0 21.5 -7.5t6.5 -27.5q0 -51 -10 -69.5t-31 -18.5h-628q-29 0 -39.5 7 t-10.5 24zM395 1460q0 20 11 74q4 24 19 31.5t56 7.5q38 0 50 -8t12 -31q0 -18 -11 -72q-4 -26 -19 -33.5t-56 -7.5q-38 0 -50 8t-12 31zM655 1460q0 2 11 74q6 24 20.5 31.5t56.5 7.5q37 0 49.5 -8t12.5 -31t-10 -72q-4 -26 -19.5 -33.5t-56.5 -7.5q-38 0 -51 8t-13 31z " />
<glyph unicode="&#xcc;" horiz-adv-x="407" d="M59 1624q0 18 14 24.5t58 6.5t60.5 -8t25.5 -31q143 -224 143 -244q0 -15 -12 -20.5t-41 -5.5q-41 0 -56 7t-28 27l-137 189q-27 39 -27 55zM102 33q0 17 4 53l117 1120q3 28 17 37.5t55 9.5q36 0 47.5 -5.5t11.5 -24.5q0 -20 -4 -56l-117 -1120q-3 -28 -16.5 -37.5 t-54.5 -9.5q-36 0 -48 6.5t-12 26.5z" />
<glyph unicode="&#xcd;" horiz-adv-x="407" d="M102 33q0 17 4 53l117 1120q3 28 17 37.5t55 9.5q36 0 47.5 -5.5t11.5 -24.5q0 -20 -4 -56l-117 -1120q-3 -28 -16.5 -37.5t-54.5 -9.5q-36 0 -48 6.5t-12 26.5zM246 1368q0 17 20 47l127 201q13 23 29.5 31t60.5 8q43 0 56.5 -6.5t13.5 -20.5q0 -16 -27 -55l-143 -193 q-15 -20 -30.5 -27t-55.5 -7q-30 0 -40.5 5t-10.5 17z" />
<glyph unicode="&#xce;" horiz-adv-x="407" d="M57 1368q0 14 25 49l145 199q18 23 34.5 31t53.5 8h43q37 0 51 -7.5t25 -29.5l105 -205q16 -32 16 -43q0 -24 -53 -24q-36 0 -51.5 6.5t-26.5 25.5l-92 170h-10l-125 -170q-15 -18 -35.5 -25t-59.5 -7q-27 0 -36 5t-9 17zM102 33q0 17 4 53l117 1120q3 28 17 37.5t55 9.5 q36 0 47.5 -5.5t11.5 -24.5q0 -20 -4 -56l-117 -1120q-3 -28 -16.5 -37.5t-54.5 -9.5q-36 0 -48 6.5t-12 26.5z" />
<glyph unicode="&#xcf;" horiz-adv-x="407" d="M102 33q0 17 4 53l117 1120q3 28 17 37.5t55 9.5q36 0 47.5 -5.5t11.5 -24.5q0 -20 -4 -56l-117 -1120q-3 -28 -16.5 -37.5t-54.5 -9.5q-36 0 -48 6.5t-12 26.5zM119 1460q0 25 10 74q4 24 19.5 31.5t56.5 7.5q38 0 49.5 -7.5t11.5 -31.5q0 -23 -10 -72 q-4 -26 -19.5 -33.5t-56.5 -7.5q-38 0 -49.5 7.5t-11.5 31.5zM379 1460q0 9 10 74q6 24 21 31.5t57 7.5q37 0 49 -8t12 -31t-10 -72q-4 -26 -19.5 -33.5t-56.5 -7.5q-38 0 -50.5 8t-12.5 31z" />
<glyph unicode="&#xd0;" horiz-adv-x="1054" d="M47 612q0 50 9.5 67t31.5 17h82l53 492q5 48 60 59q129 17 299 17q65 0 110 -2.5t93 -11.5t79.5 -25t61 -43t46 -66.5t26.5 -95t10 -127.5q0 -109 -25 -322.5t-61 -324.5q-19 -60 -43.5 -103.5t-57.5 -72.5t-66 -47t-80.5 -26.5t-90.5 -11.5t-105 -3q-185 0 -315 14 q-34 4 -48 16.5t-14 34.5q0 12 7 66l49 465h-82q-16 0 -22.5 6.5t-6.5 27.5zM240 109q116 -11 252 -11q59 0 95.5 3.5t75 14.5t62.5 33t45.5 59.5t36.5 92.5q28 105 47.5 285.5t19.5 283.5q0 64 -6 109t-23 76.5t-37.5 49.5t-58 28t-76 13t-100.5 3q-93 0 -225 -10l-47 -443 h96q16 0 22.5 -6.5t6.5 -27.5q0 -50 -9.5 -67t-31.5 -17h-96z" />
<glyph unicode="&#xd1;" horiz-adv-x="1112" d="M102 33q0 17 4 53l117 1120q3 28 24 37.5t87 9.5q58 0 77.5 -8t28.5 -35l355 -1034h20q6 54 42.5 415.5t64.5 614.5q3 28 16.5 37.5t54.5 9.5q36 0 48 -6t12 -24q0 -15 -15 -160l-106 -1016q-3 -28 -24 -37.5t-87 -9.5q-56 0 -75 8t-29 37l-357 1038h-20 q-16 -166 -107 -1036q-3 -28 -16.5 -37.5t-54.5 -9.5q-36 0 -48 6.5t-12 26.5zM403 1427q0 38 11.5 59t42.5 38q58 32 121 32q42 0 103.5 -21.5t92.5 -21.5q39 0 83 19.5t48 19.5q19 0 19 -24q0 -38 -11.5 -58.5t-42.5 -37.5q-59 -33 -122 -33q-40 0 -102 21.5t-93 21.5 q-40 0 -83.5 -19.5t-47.5 -19.5q-19 0 -19 24z" />
<glyph unicode="&#xd2;" horiz-adv-x="1044" d="M104 340q0 100 20 305t52 330q20 76 48 127.5t62 83.5t86 49.5t107 23t137 5.5q56 0 95.5 -2.5t82 -11.5t71 -24.5t55 -42t42 -64.5t24.5 -91.5t9 -122.5q0 -101 -19.5 -306t-51.5 -329q-20 -76 -48 -127.5t-62 -83.5t-86.5 -49t-107 -22.5t-137.5 -5.5q-66 0 -110.5 4 t-91.5 16.5t-76.5 36.5t-54 63t-35.5 98.5t-11 139.5zM236 348q0 -82 13 -131.5t46.5 -76t77.5 -34.5t121 -8q60 0 99.5 4t75.5 16t59 34.5t41 58.5t30 90q27 117 46 312t19 284q0 82 -13 131.5t-46.5 76t-77.5 34.5t-121 8q-60 0 -99.5 -4t-75.5 -16t-59 -34.5t-41 -58.5 t-30 -90q-27 -117 -46 -312t-19 -284zM393 1624q0 18 14 24.5t58 6.5t60.5 -8t25.5 -31q143 -224 143 -244q0 -15 -12 -20.5t-41 -5.5q-41 0 -56 7t-28 27l-137 189q-27 39 -27 55z" />
<glyph unicode="&#xd3;" horiz-adv-x="1044" d="M104 340q0 100 20 305t52 330q20 76 48 127.5t62 83.5t86 49.5t107 23t137 5.5q56 0 95.5 -2.5t82 -11.5t71 -24.5t55 -42t42 -64.5t24.5 -91.5t9 -122.5q0 -101 -19.5 -306t-51.5 -329q-20 -76 -48 -127.5t-62 -83.5t-86.5 -49t-107 -22.5t-137.5 -5.5q-66 0 -110.5 4 t-91.5 16.5t-76.5 36.5t-54 63t-35.5 98.5t-11 139.5zM236 348q0 -82 13 -131.5t46.5 -76t77.5 -34.5t121 -8q60 0 99.5 4t75.5 16t59 34.5t41 58.5t30 90q27 117 46 312t19 284q0 82 -13 131.5t-46.5 76t-77.5 34.5t-121 8q-60 0 -99.5 -4t-75.5 -16t-59 -34.5t-41 -58.5 t-30 -90q-27 -117 -46 -312t-19 -284zM510 1368q0 17 20 47l127 201q13 22 30 30.5t61 8.5q43 0 56 -6.5t13 -20.5q0 -17 -26 -55l-144 -193q-15 -20 -30.5 -27t-55.5 -7q-30 0 -40.5 5t-10.5 17z" />
<glyph unicode="&#xd4;" horiz-adv-x="1044" d="M104 340q0 100 20 305t52 330q20 76 48 127.5t62 83.5t86 49.5t107 23t137 5.5q56 0 95.5 -2.5t82 -11.5t71 -24.5t55 -42t42 -64.5t24.5 -91.5t9 -122.5q0 -101 -19.5 -306t-51.5 -329q-20 -76 -48 -127.5t-62 -83.5t-86.5 -49t-107 -22.5t-137.5 -5.5q-66 0 -110.5 4 t-91.5 16.5t-76.5 36.5t-54 63t-35.5 98.5t-11 139.5zM236 348q0 -82 13 -131.5t46.5 -76t77.5 -34.5t121 -8q60 0 99.5 4t75.5 16t59 34.5t41 58.5t30 90q27 117 46 312t19 284q0 82 -13 131.5t-46.5 76t-77.5 34.5t-121 8q-60 0 -99.5 -4t-75.5 -16t-59 -34.5t-41 -58.5 t-30 -90q-27 -117 -46 -312t-19 -284zM354 1368q0 14 25 49l145 199q18 23 34.5 31t53.5 8h43q37 0 51 -7.5t25 -29.5l105 -205q16 -32 16 -43q0 -24 -53 -24q-36 0 -51.5 6.5t-26.5 25.5l-92 170h-11l-124 -170q-15 -18 -35.5 -25t-59.5 -7q-27 0 -36 5t-9 17z" />
<glyph unicode="&#xd5;" horiz-adv-x="1044" d="M104 340q0 100 20 305t52 330q20 76 48 127.5t62 83.5t86 49.5t107 23t137 5.5q56 0 95.5 -2.5t82 -11.5t71 -24.5t55 -42t42 -64.5t24.5 -91.5t9 -122.5q0 -101 -19.5 -306t-51.5 -329q-20 -76 -48 -127.5t-62 -83.5t-86.5 -49t-107 -22.5t-137.5 -5.5q-66 0 -110.5 4 t-91.5 16.5t-76.5 36.5t-54 63t-35.5 98.5t-11 139.5zM236 348q0 -82 13 -131.5t46.5 -76t77.5 -34.5t121 -8q60 0 99.5 4t75.5 16t59 34.5t41 58.5t30 90q27 117 46 312t19 284q0 82 -13 131.5t-46.5 76t-77.5 34.5t-121 8q-60 0 -99.5 -4t-75.5 -16t-59 -34.5t-41 -58.5 t-30 -90q-27 -117 -46 -312t-19 -284zM362 1427q0 38 11.5 59t42.5 38q58 32 121 32q42 0 103.5 -21.5t92.5 -21.5q39 0 83 19.5t48 19.5q19 0 19 -24q0 -38 -11.5 -58.5t-42.5 -37.5q-59 -33 -122 -33q-41 0 -102 21.5t-93 21.5q-40 0 -83.5 -19.5t-47.5 -19.5 q-19 0 -19 24z" />
<glyph unicode="&#xd6;" horiz-adv-x="1044" d="M104 340q0 100 20 305t52 330q20 76 48 127.5t62 83.5t86 49.5t107 23t137 5.5q56 0 95.5 -2.5t82 -11.5t71 -24.5t55 -42t42 -64.5t24.5 -91.5t9 -122.5q0 -101 -19.5 -306t-51.5 -329q-20 -76 -48 -127.5t-62 -83.5t-86.5 -49t-107 -22.5t-137.5 -5.5q-66 0 -110.5 4 t-91.5 16.5t-76.5 36.5t-54 63t-35.5 98.5t-11 139.5zM236 348q0 -82 13 -131.5t46.5 -76t77.5 -34.5t121 -8q60 0 99.5 4t75.5 16t59 34.5t41 58.5t30 90q27 117 46 312t19 284q0 82 -13 131.5t-46.5 76t-77.5 34.5t-121 8q-60 0 -99.5 -4t-75.5 -16t-59 -34.5t-41 -58.5 t-30 -90q-27 -117 -46 -312t-19 -284zM424 1460q0 25 10 74q4 24 19.5 31.5t56.5 7.5q38 0 49.5 -7.5t11.5 -31.5q0 -23 -10 -72q-4 -26 -19.5 -33.5t-56.5 -7.5q-38 0 -49.5 7.5t-11.5 31.5zM684 1460q0 9 10 74q6 24 21 31.5t57 7.5q37 0 49.5 -8t12.5 -31q0 -18 -11 -72 q-4 -26 -19 -33.5t-56 -7.5q-38 0 -51 8t-13 31z" />
<glyph unicode="&#xd7;" d="M186 266q0 10 13 27.5t61 71.5l166 190l-156 248q-22 35 -22 49q0 16 14 22.5t51 6.5q60 0 76 -27l119 -205l160 205q11 16 28.5 21.5t51.5 5.5q67 0 67 -23q0 -14 -31 -53l-213 -256l162 -234q23 -32 23 -47q0 -28 -70 -28q-58 0 -76 26l-118 189l-160 -189 q-21 -26 -78 -26q-39 0 -53.5 6t-14.5 20z" />
<glyph unicode="&#xd8;" horiz-adv-x="1044" d="M104 340q0 100 20 305t52 330q20 76 48 127.5t62 83.5t86 49.5t107 23t137 5.5q56 0 95.5 -2.5t82 -11.5t71 -24.5t55 -42t42 -64.5t24.5 -91.5t9 -122.5q0 -101 -19.5 -306t-51.5 -329q-20 -76 -48 -127.5t-62 -83.5t-86.5 -49t-107 -22.5t-137.5 -5.5q-66 0 -110.5 4 t-91.5 16.5t-76.5 36.5t-54 63t-35.5 98.5t-11 139.5zM236 348q0 -41 2 -59l600 770q-25 52 -78 70t-154 18q-60 0 -99.5 -4t-75.5 -16t-59 -34.5t-41 -58.5t-30 -90q-27 -117 -46 -312t-19 -284zM274 160q28 -36 79 -49t141 -13q60 0 99.5 4t75.5 16t59 34.5t41 58.5t30 90 q28 118 46.5 315t18.5 299z" />
<glyph unicode="&#xd9;" horiz-adv-x="1050" d="M119 274q0 73 26 304l68 628q3 28 17 37.5t55 9.5q36 0 47.5 -5.5t11.5 -24.5q0 -20 -4 -56l-59 -592q-27 -261 -27 -288q0 -99 52 -141t186 -42q152 0 211 55.5t73 192.5l90 854q3 28 17.5 37.5t54.5 9.5q36 0 48.5 -6t12.5 -24q0 -20 -4 -56l-84 -813 q-20 -200 -122.5 -286t-311.5 -86q-189 0 -273.5 67t-84.5 225zM385 1624q0 18 14 24.5t58 6.5t60.5 -8t25.5 -31q143 -224 143 -244q0 -15 -12 -20.5t-41 -5.5q-41 0 -56 7t-28 27l-137 189q-27 39 -27 55z" />
<glyph unicode="&#xda;" horiz-adv-x="1050" d="M119 274q0 73 26 304l68 628q3 28 17 37.5t55 9.5q36 0 47.5 -5.5t11.5 -24.5q0 -20 -4 -56l-59 -592q-27 -261 -27 -288q0 -99 52 -141t186 -42q152 0 211 55.5t73 192.5l90 854q3 28 17.5 37.5t54.5 9.5q36 0 48.5 -6t12.5 -24q0 -20 -4 -56l-84 -813 q-20 -200 -122.5 -286t-311.5 -86q-189 0 -273.5 67t-84.5 225zM489 1368q0 16 21 47l127 201q13 23 29.5 31t60.5 8q43 0 56.5 -6.5t13.5 -20.5q0 -16 -27 -55l-143 -193q-15 -20 -30.5 -27t-55.5 -7q-30 0 -41 5t-11 17z" />
<glyph unicode="&#xdb;" horiz-adv-x="1050" d="M119 274q0 73 26 304l68 628q3 28 17 37.5t55 9.5q36 0 47.5 -5.5t11.5 -24.5q0 -20 -4 -56l-59 -592q-27 -261 -27 -288q0 -99 52 -141t186 -42q152 0 211 55.5t73 192.5l90 854q3 28 17.5 37.5t54.5 9.5q36 0 48.5 -6t12.5 -24q0 -20 -4 -56l-84 -813 q-20 -200 -122.5 -286t-311.5 -86q-189 0 -273.5 67t-84.5 225zM358 1368q0 14 25 49l145 199q18 23 34.5 31t53.5 8h43q37 0 51 -7.5t25 -29.5l105 -205q16 -32 16 -43q0 -24 -53 -24q-36 0 -51.5 6.5t-26.5 25.5l-92 170h-10l-125 -170q-15 -18 -35.5 -25t-59.5 -7 q-27 0 -36 5t-9 17z" />
<glyph unicode="&#xdc;" horiz-adv-x="1050" d="M119 274q0 73 26 304l68 628q3 28 17 37.5t55 9.5q36 0 47.5 -5.5t11.5 -24.5q0 -20 -4 -56l-59 -592q-27 -261 -27 -288q0 -99 52 -141t186 -42q152 0 211 55.5t73 192.5l90 854q3 28 17.5 37.5t54.5 9.5q36 0 48.5 -6t12.5 -24q0 -20 -4 -56l-84 -813 q-20 -200 -122.5 -286t-311.5 -86q-189 0 -273.5 67t-84.5 225zM416 1460q0 25 10 74q4 24 19.5 31.5t56.5 7.5q38 0 49.5 -7.5t11.5 -31.5q0 -23 -10 -72q-4 -26 -19.5 -33.5t-56.5 -7.5q-38 0 -49.5 7.5t-11.5 31.5zM676 1460q0 9 10 74q6 24 21 31.5t57 7.5q37 0 49 -8 t12 -31t-10 -72q-4 -26 -19.5 -33.5t-56.5 -7.5q-38 0 -50.5 8t-12.5 31z" />
<glyph unicode="&#xdd;" horiz-adv-x="935" d="M125 1223q0 18 16.5 24t55.5 6q43 0 58 -5.5t21 -26.5l203 -582h8l324 582q10 21 28 26.5t62 5.5q34 0 47 -5.5t13 -20.5q0 -17 -19 -51l-407 -682l-48 -447q-3 -28 -16.5 -37.5t-54.5 -9.5q-36 0 -48 6.5t-12 26.5q0 17 4 53l41 408l-264 682q-12 36 -12 47zM436 1368 q0 16 21 47l127 201q13 23 29.5 31t60.5 8q43 0 56 -6.5t13 -20.5q0 -17 -26 -55l-144 -193q-15 -20 -30.5 -27t-55.5 -7q-30 0 -40.5 5t-10.5 17z" />
<glyph unicode="&#xde;" horiz-adv-x="983" d="M113 33q0 17 4 53l116 1120q3 28 17 37.5t55 9.5q36 0 48 -6t12 -24q0 -11 -5 -56l-16 -157q111 6 188 6q104 0 168.5 -9t115.5 -36t73 -78t22 -133q0 -270 -106.5 -384t-364.5 -114h-174l-22 -215q-3 -28 -17 -37.5t-55 -9.5q-36 0 -47.5 6.5t-11.5 26.5zM279 377h180 q174 0 241.5 77.5t67.5 286.5q0 95 -52.5 126.5t-203.5 31.5q-98 0 -180 -6z" />
<glyph unicode="&#xdf;" horiz-adv-x="974" d="M57 -354q0 11 2.5 36t7 57t5.5 44l137 1327q10 92 34.5 142t85.5 77t171 27q154 0 224.5 -38t70.5 -138q0 -60 -22.5 -120t-49.5 -101t-49.5 -93.5t-22.5 -99.5q0 -29 12 -56.5t25 -44t35 -38.5l76 -74q55 -54 77.5 -102.5t22.5 -112.5q0 -178 -85.5 -268t-233.5 -90 q-91 0 -187 28q-24 8 -33.5 17.5t-9.5 29.5q0 26 8.5 50t20.5 24q4 0 68.5 -15.5t132.5 -15.5q102 0 143 57.5t41 172.5q0 43 -14 75t-60 76l-84 82q-82 82 -82 182q0 53 22 111t48 100.5t48 95t22 95.5q0 62 -40 80t-137 18q-89 0 -114 -26t-35 -134l-148 -1423 q-3 -30 -16 -38.5t-53 -8.5q-36 0 -50 6t-14 27z" />
<glyph unicode="&#xe0;" horiz-adv-x="997" d="M88 240q0 131 27 352q31 237 126 335.5t267 98.5q66 0 114 -9t76.5 -26t45 -35t26.5 -43l6 50q4 26 18.5 34.5t53.5 8.5q33 0 44 -8t11 -25q0 -22 -36 -346.5t-36 -372.5q0 -26 7.5 -113.5t7.5 -105.5t-12.5 -26.5t-47.5 -8.5t-47 9t-14 34l-14 150q-106 -213 -361 -213 q-138 0 -200 61t-62 199zM221 260q0 -91 41.5 -128.5t130.5 -37.5q68 0 125 24.5t94.5 64.5t61.5 84.5t35 92.5q18 79 30.5 212.5t12.5 175.5q0 79 -48.5 120t-173.5 41q-89 0 -142.5 -26.5t-89 -97.5t-52.5 -201q-25 -176 -25 -324zM389 1384q0 18 14 24.5t58 6.5t60.5 -8 t25.5 -31q143 -224 143 -243q0 -27 -53 -27q-40 0 -55.5 7.5t-28.5 27.5l-137 188q-27 39 -27 55z" />
<glyph unicode="&#xe1;" horiz-adv-x="997" d="M88 240q0 131 27 352q31 237 126 335.5t267 98.5q66 0 114 -9t76.5 -26t45 -35t26.5 -43l6 50q4 26 18.5 34.5t53.5 8.5q33 0 44 -8t11 -25q0 -22 -36 -346.5t-36 -372.5q0 -26 7.5 -113.5t7.5 -105.5t-12.5 -26.5t-47.5 -8.5t-47 9t-14 34l-14 150q-106 -213 -361 -213 q-138 0 -200 61t-62 199zM221 260q0 -91 41.5 -128.5t130.5 -37.5q68 0 125 24.5t94.5 64.5t61.5 84.5t35 92.5q18 79 30.5 212.5t12.5 175.5q0 79 -48.5 120t-173.5 41q-89 0 -142.5 -26.5t-89 -97.5t-52.5 -201q-25 -176 -25 -324zM465 1128q0 18 20 48l127 200 q13 23 29.5 31t60.5 8t57 -6t13 -20q0 -17 -27 -56l-143 -192q-15 -21 -30.5 -28t-55.5 -7q-30 0 -40.5 5t-10.5 17z" />
<glyph unicode="&#xe2;" horiz-adv-x="997" d="M88 240q0 131 27 352q31 237 126 335.5t267 98.5q66 0 114 -9t76.5 -26t45 -35t26.5 -43l6 50q4 26 18.5 34.5t53.5 8.5q33 0 44 -8t11 -25q0 -22 -36 -346.5t-36 -372.5q0 -26 7.5 -113.5t7.5 -105.5t-12.5 -26.5t-47.5 -8.5t-47 9t-14 34l-14 150q-106 -213 -361 -213 q-138 0 -200 61t-62 199zM221 260q0 -91 41.5 -128.5t130.5 -37.5q68 0 125 24.5t94.5 64.5t61.5 84.5t35 92.5q18 79 30.5 212.5t12.5 175.5q0 79 -48.5 120t-173.5 41q-89 0 -142.5 -26.5t-89 -97.5t-52.5 -201q-25 -176 -25 -324zM332 1128q0 17 24 50l146 198 q18 23 34.5 31t53.5 8h43q37 0 51 -7.5t25 -29.5l104 -204q16 -32 16 -44q0 -24 -53 -24q-36 0 -51.5 7t-26.5 26l-92 170h-10l-125 -170q-15 -19 -35.5 -26t-58.5 -7q-27 0 -36 5t-9 17z" />
<glyph unicode="&#xe3;" horiz-adv-x="997" d="M88 240q0 131 27 352q31 237 126 335.5t267 98.5q66 0 114 -9t76.5 -26t45 -35t26.5 -43l6 50q4 26 18.5 34.5t53.5 8.5q33 0 44 -8t11 -25q0 -22 -36 -346.5t-36 -372.5q0 -26 7.5 -113.5t7.5 -105.5t-12.5 -26.5t-47.5 -8.5t-47 9t-14 34l-14 150q-106 -213 -361 -213 q-138 0 -200 61t-62 199zM221 260q0 -91 41.5 -128.5t130.5 -37.5q68 0 125 24.5t94.5 64.5t61.5 84.5t35 92.5q18 79 30.5 212.5t12.5 175.5q0 79 -48.5 120t-173.5 41q-89 0 -142.5 -26.5t-89 -97.5t-52.5 -201q-25 -176 -25 -324zM326 1190q0 38 11 58.5t42 37.5 q59 33 121 33q42 0 103.5 -21.5t92.5 -21.5q39 0 83 19.5t48 19.5q19 0 19 -25q0 -38 -11 -58.5t-42 -37.5q-59 -33 -123 -33q-40 0 -102 21.5t-93 21.5q-40 0 -83.5 -19.5t-47.5 -19.5q-18 0 -18 25z" />
<glyph unicode="&#xe4;" horiz-adv-x="997" d="M88 240q0 131 27 352q31 237 126 335.5t267 98.5q66 0 114 -9t76.5 -26t45 -35t26.5 -43l6 50q4 26 18.5 34.5t53.5 8.5q33 0 44 -8t11 -25q0 -22 -36 -346.5t-36 -372.5q0 -26 7.5 -113.5t7.5 -105.5t-12.5 -26.5t-47.5 -8.5t-47 9t-14 34l-14 150q-106 -213 -361 -213 q-138 0 -200 61t-62 199zM221 260q0 -91 41.5 -128.5t130.5 -37.5q68 0 125 24.5t94.5 64.5t61.5 84.5t35 92.5q18 79 30.5 212.5t12.5 175.5q0 79 -48.5 120t-173.5 41q-89 0 -142.5 -26.5t-89 -97.5t-52.5 -201q-25 -176 -25 -324zM391 1221q0 24 10 73q4 24 19.5 31.5 t56.5 7.5q38 0 50 -8t12 -31q0 -17 -11 -71q-4 -26 -19 -33.5t-56 -7.5q-38 0 -50 8t-12 31zM651 1221q0 1 11 73q6 24 20.5 31.5t56.5 7.5q37 0 49.5 -8t12.5 -31q0 -22 -10 -71q-4 -26 -19.5 -33.5t-56.5 -7.5q-38 0 -51 8t-13 31z" />
<glyph unicode="&#xe5;" horiz-adv-x="997" d="M88 240q0 131 27 352q31 237 126 335.5t267 98.5q66 0 114 -9t76.5 -26t45 -35t26.5 -43l6 50q4 26 18.5 34.5t53.5 8.5q33 0 44 -8t11 -25q0 -22 -36 -346.5t-36 -372.5q0 -26 7.5 -113.5t7.5 -105.5t-12.5 -26.5t-47.5 -8.5t-47 9t-14 34l-14 150q-106 -213 -361 -213 q-138 0 -200 61t-62 199zM221 260q0 -91 41.5 -128.5t130.5 -37.5q68 0 125 24.5t94.5 64.5t61.5 84.5t35 92.5q18 79 30.5 212.5t12.5 175.5q0 79 -48.5 120t-173.5 41q-89 0 -142.5 -26.5t-89 -97.5t-52.5 -201q-25 -176 -25 -324zM397 1270q0 46 8 80t30 65.5t67 48.5 t112 17q112 0 150.5 -32t38.5 -99q0 -46 -8 -80t-30 -65.5t-67 -48.5t-112 -17q-112 0 -150.5 32t-38.5 99zM506 1284q0 -30 17 -40.5t69 -10.5q61 0 81.5 21.5t20.5 80.5q0 30 -17 40.5t-69 10.5q-61 0 -81.5 -21.5t-20.5 -80.5z" />
<glyph unicode="&#xe6;" horiz-adv-x="1515" d="M88 240q0 131 27 352q31 237 126 335.5t267 98.5q101 0 162.5 -20.5t90 -56.5t42.5 -97q22 46 50.5 78t59 50.5t72.5 29t80 13.5t92 3q70 0 120.5 -9.5t81.5 -25.5t48.5 -42t24 -54.5t6.5 -67.5q0 -132 -30.5 -213.5t-109.5 -117.5q-60 -29 -143.5 -43.5t-257.5 -14.5 h-57q-6 -76 -6 -147q0 -121 46 -159t179 -38q62 0 125.5 13t104 25.5t46.5 12.5q11 0 16 -5.5t5 -24.5q0 -44 -9.5 -60.5t-37.5 -25.5q-49 -21 -125.5 -35t-153.5 -14q-82 0 -134 8t-93.5 30t-63 63t-30.5 107q-105 -208 -359 -208q-138 0 -200 61t-62 199zM221 260 q0 -91 41.5 -128.5t130.5 -37.5q68 0 125 24.5t94.5 64.5t61.5 84.5t35 92.5q18 79 30.5 212.5t12.5 175.5q0 79 -48.5 120t-173.5 41q-89 0 -142.5 -26.5t-89 -97.5t-52.5 -201q-25 -176 -25 -324zM850 543h35q278 0 358 49q23 14 36 30t24.5 62.5t11.5 122.5 q0 27 -5.5 43.5t-22.5 31.5t-53 22t-93 7q-103 0 -157 -29t-83 -116q-35 -95 -51 -223z" />
<glyph unicode="&#xe7;" horiz-adv-x="843" d="M90 289q0 294 76 512q21 60 52 102t64 65.5t78 37t83.5 17t91.5 3.5q47 0 116 -9.5t107 -21.5q27 -9 36 -18.5t9 -30.5q0 -28 -6 -43.5t-12 -18.5t-15 -3q-1 0 -86 15t-162 15q-100 0 -151 -28.5t-80 -114.5q-68 -201 -68 -475q0 -120 45.5 -159.5t171.5 -39.5 q59 0 119 13t98 25.5t43 12.5q11 0 16 -5.5t5 -24.5q0 -43 -10 -60t-37 -28q-96 -36 -219 -45q-1 -13 -2 -25.5t-1.5 -19.5t-0.5 -9q0 -23 26 -41q62 -43 82.5 -66.5t20.5 -66.5q0 -157 -179 -157q-55 0 -106 14q-19 5 -27 12.5t-8 24.5q0 25 9.5 45t25.5 20q6 0 34.5 -3 t57.5 -3q24 0 35.5 2t21 12.5t9.5 30.5t-47 51q-31 22 -43.5 39t-12.5 45q0 25 8 95q-71 2 -118 16t-82.5 48t-51.5 93t-16 150z" />
<glyph unicode="&#xe8;" horiz-adv-x="905" d="M90 289q0 294 76 512q21 60 52 102t64 66t80 37t87 16.5t98 3.5q87 0 144 -13.5t86.5 -41.5t40.5 -61.5t11 -82.5q0 -131 -31 -213t-110 -118q-60 -29 -143.5 -43.5t-257.5 -14.5h-58q-6 -76 -6 -147q0 -119 47 -158t179 -39q62 0 125.5 13t104 25.5t46.5 12.5 q10 0 15 -5.5t5 -24.5q0 -44 -9.5 -60.5t-37.5 -25.5q-123 -49 -278 -49q-92 0 -148.5 11.5t-100.5 44t-62.5 94t-18.5 159.5zM240 543h34q279 0 359 49q23 14 36 30t24.5 62.5t11.5 122.5q0 36 -10.5 56t-50 34t-114.5 14q-103 0 -156.5 -29t-82.5 -116q-35 -95 -51 -223z M362 1384q0 18 14 24.5t58 6.5t60.5 -8t25.5 -31q144 -226 144 -243q0 -27 -54 -27q-40 0 -55.5 7.5t-28.5 27.5l-137 188q-27 39 -27 55z" />
<glyph unicode="&#xe9;" horiz-adv-x="905" d="M90 289q0 294 76 512q21 60 52 102t64 66t80 37t87 16.5t98 3.5q87 0 144 -13.5t86.5 -41.5t40.5 -61.5t11 -82.5q0 -131 -31 -213t-110 -118q-60 -29 -143.5 -43.5t-257.5 -14.5h-58q-6 -76 -6 -147q0 -119 47 -158t179 -39q62 0 125.5 13t104 25.5t46.5 12.5 q10 0 15 -5.5t5 -24.5q0 -44 -9.5 -60.5t-37.5 -25.5q-123 -49 -278 -49q-92 0 -148.5 11.5t-100.5 44t-62.5 94t-18.5 159.5zM240 543h34q279 0 359 49q23 14 36 30t24.5 62.5t11.5 122.5q0 36 -10.5 56t-50 34t-114.5 14q-103 0 -156.5 -29t-82.5 -116q-35 -95 -51 -223z M436 1128q0 16 21 48l127 200q13 23 29.5 31t60.5 8t56.5 -6t12.5 -20q0 -18 -26 -56l-144 -192q-15 -21 -30.5 -28t-55.5 -7q-30 0 -40.5 5t-10.5 17z" />
<glyph unicode="&#xea;" horiz-adv-x="905" d="M90 289q0 294 76 512q21 60 52 102t64 66t80 37t87 16.5t98 3.5q87 0 144 -13.5t86.5 -41.5t40.5 -61.5t11 -82.5q0 -131 -31 -213t-110 -118q-60 -29 -143.5 -43.5t-257.5 -14.5h-58q-6 -76 -6 -147q0 -119 47 -158t179 -39q62 0 125.5 13t104 25.5t46.5 12.5 q10 0 15 -5.5t5 -24.5q0 -44 -9.5 -60.5t-37.5 -25.5q-123 -49 -278 -49q-92 0 -148.5 11.5t-100.5 44t-62.5 94t-18.5 159.5zM240 543h34q279 0 359 49q23 14 36 30t24.5 62.5t11.5 122.5q0 36 -10.5 56t-50 34t-114.5 14q-103 0 -156.5 -29t-82.5 -116q-35 -95 -51 -223z M303 1128q0 15 25 50l145 198q18 23 34.5 31t53.5 8h43q37 0 51 -7.5t25 -29.5l104 -204q17 -34 17 -44q0 -24 -53 -24q-36 0 -51.5 7t-26.5 26l-92 170h-11l-125 -170q-15 -19 -35.5 -26t-58.5 -7q-27 0 -36 5t-9 17z" />
<glyph unicode="&#xeb;" horiz-adv-x="905" d="M90 289q0 294 76 512q21 60 52 102t64 66t80 37t87 16.5t98 3.5q87 0 144 -13.5t86.5 -41.5t40.5 -61.5t11 -82.5q0 -131 -31 -213t-110 -118q-60 -29 -143.5 -43.5t-257.5 -14.5h-58q-6 -76 -6 -147q0 -119 47 -158t179 -39q62 0 125.5 13t104 25.5t46.5 12.5 q10 0 15 -5.5t5 -24.5q0 -44 -9.5 -60.5t-37.5 -25.5q-123 -49 -278 -49q-92 0 -148.5 11.5t-100.5 44t-62.5 94t-18.5 159.5zM240 543h34q279 0 359 49q23 14 36 30t24.5 62.5t11.5 122.5q0 36 -10.5 56t-50 34t-114.5 14q-103 0 -156.5 -29t-82.5 -116q-35 -95 -51 -223z M365 1221q0 24 10 73q4 24 19.5 31.5t56.5 7.5q38 0 49.5 -7.5t11.5 -31.5q0 -22 -10 -71q-4 -26 -19.5 -33.5t-56.5 -7.5q-38 0 -49.5 7.5t-11.5 31.5zM625 1221q0 8 10 73q6 24 21 31.5t57 7.5q37 0 49 -8t12 -31q0 -22 -10 -71q-4 -26 -19.5 -33.5t-56.5 -7.5 q-38 0 -50.5 8t-12.5 31z" />
<glyph unicode="&#xec;" horiz-adv-x="432" d="M66 1384q0 18 13.5 24.5t57.5 6.5t60.5 -8t25.5 -31q144 -226 144 -243q0 -27 -54 -27q-40 0 -55.5 7.5t-28.5 27.5l-137 188q-26 38 -26 55zM123 197q0 40 22 282l48 479q5 29 18.5 38.5t52.5 9.5q36 0 50 -6.5t14 -26.5q0 -17 -36 -348.5t-36 -421.5q0 -37 10 -98.5 t10 -63.5q0 -24 -11 -32.5t-50 -8.5q-35 0 -48.5 7.5t-19.5 29.5q-9 30 -16.5 82t-7.5 78z" />
<glyph unicode="&#xed;" horiz-adv-x="432" d="M123 197q0 40 22 282l48 479q5 29 18.5 38.5t52.5 9.5q36 0 50 -6.5t14 -26.5q0 -17 -36 -348.5t-36 -421.5q0 -37 10 -98.5t10 -63.5q0 -24 -11 -32.5t-50 -8.5q-35 0 -48.5 7.5t-19.5 29.5q-9 30 -16.5 82t-7.5 78zM199 1128q0 18 20 48l127 200q13 23 29.5 31t60.5 8 t57 -6t13 -20q0 -17 -27 -56l-143 -192q-15 -21 -30.5 -28t-55.5 -7q-30 0 -40.5 5t-10.5 17z" />
<glyph unicode="&#xee;" horiz-adv-x="432" d="M27 1128q0 17 24 50l146 198q18 23 34.5 31t53.5 8h43q37 0 50 -7.5t25 -29.5l105 -204q16 -32 16 -44q0 -24 -53 -24q-36 0 -51.5 7t-26.5 26l-92 170h-10l-125 -170q-15 -19 -35.5 -26t-58.5 -7q-27 0 -36 5t-9 17zM109 197q0 40 22 282l47 479q5 29 18.5 38.5 t53.5 9.5q36 0 49.5 -6.5t13.5 -26.5q0 -17 -35.5 -348.5t-35.5 -421.5q0 -37 10 -98.5t10 -63.5q0 -24 -11 -32.5t-50 -8.5q-35 0 -48.5 7.5t-19.5 29.5q-9 30 -16.5 82t-7.5 78z" />
<glyph unicode="&#xef;" horiz-adv-x="432" d="M74 1221q0 24 10 73q4 24 19.5 31.5t56.5 7.5q38 0 49.5 -7.5t11.5 -31.5q0 -22 -10 -71q-4 -26 -19.5 -33.5t-56.5 -7.5q-38 0 -49.5 7.5t-11.5 31.5zM123 197q0 40 22 282l48 479q5 29 18.5 38.5t52.5 9.5q36 0 50 -6.5t14 -26.5q0 -17 -36 -348.5t-36 -421.5 q0 -37 10 -98.5t10 -63.5q0 -24 -11 -32.5t-50 -8.5q-35 0 -48.5 7.5t-19.5 29.5q-9 30 -16.5 82t-7.5 78zM334 1221q0 8 10 73q6 24 21 31.5t57 7.5q37 0 49 -8t12 -31q0 -22 -10 -71q-4 -26 -19.5 -33.5t-56.5 -7.5q-38 0 -50.5 8t-12.5 31z" />
<glyph unicode="&#xf0;" horiz-adv-x="985" d="M90 293q0 108 19.5 261t48.5 237q44 128 131.5 181.5t230.5 53.5q137 0 201 -57q-19 64 -59 151l-105 -24q-20 -4 -22 -4q-13 0 -21 21t-8 38q0 23 29 31l81 20q-9 14 -21 32.5t-17.5 27.5t-10 19.5t-4.5 18.5q0 27 49 27q29 0 42 -4t22 -16q32 -41 55 -78l111 28 q4 1 11.5 3t10.5 2q13 0 21 -21.5t8 -38.5q0 -23 -29 -31l-88 -22q115 -225 115 -481q0 -118 -21.5 -257.5t-60.5 -224.5q-53 -114 -143.5 -160t-243.5 -46q-91 0 -149.5 12.5t-101.5 47t-62 96t-19 157.5zM223 295q0 -122 44 -161.5t171 -39.5q105 0 164 28.5t86 98.5 q33 83 52.5 212t19.5 239q0 100 -21.5 151t-65.5 69.5t-128 18.5q-118 0 -176.5 -35.5t-87.5 -130.5q-28 -91 -43 -226t-15 -224z" />
<glyph unicode="&#xf1;" horiz-adv-x="1036" d="M109 33l10 110q59 602 59 613q0 29 -10 115.5t-10 95.5q0 20 13 29.5t52 9.5q37 0 49 -7t15 -32l18 -140q46 106 130 152.5t233 46.5q140 0 193.5 -51t53.5 -162q0 -39 -29.5 -286t-29.5 -324q0 -37 11.5 -98.5t11.5 -63.5q0 -23 -11.5 -32t-50.5 -9q-36 0 -48.5 7.5 t-18.5 29.5q-9 30 -17 82.5t-8 77.5q0 61 28.5 299.5t28.5 289.5q0 68 -33.5 95.5t-119.5 27.5q-162 0 -239 -84.5t-97 -279.5l-51 -498q-3 -30 -17 -38.5t-55 -8.5q-37 0 -49 6t-12 27zM319 1190q0 38 11.5 58.5t42.5 37.5q59 33 121 33q42 0 103.5 -21.5t92.5 -21.5 q39 0 83 19.5t48 19.5q19 0 19 -25q0 -38 -11.5 -58.5t-42.5 -37.5q-59 -33 -122 -33q-40 0 -102 21.5t-93 21.5q-40 0 -83.5 -19.5t-47.5 -19.5q-19 0 -19 25z" />
<glyph unicode="&#xf2;" horiz-adv-x="978" d="M88 289q0 92 21 250t49 239q46 137 137.5 192.5t257.5 55.5q91 0 150 -12.5t103 -46.5t63.5 -95t19.5 -155q0 -93 -21 -251t-49 -239q-46 -137 -137.5 -192t-257.5 -55q-91 0 -150 12.5t-103 46.5t-63.5 95t-19.5 155zM221 293q0 -119 44 -158t169 -39q116 0 174 33 t88 123q21 61 40.5 216.5t19.5 244.5q0 120 -44 159t-169 39q-115 0 -173.5 -33.5t-88.5 -123.5q-21 -61 -40.5 -216.5t-19.5 -244.5zM350 1384q0 18 14 24.5t58 6.5t60.5 -8t25.5 -31q143 -224 143 -243q0 -27 -53 -27q-40 0 -55.5 7.5t-28.5 27.5l-137 188q-27 39 -27 55z " />
<glyph unicode="&#xf3;" horiz-adv-x="978" d="M88 289q0 92 21 250t49 239q46 137 137.5 192.5t257.5 55.5q91 0 150 -12.5t103 -46.5t63.5 -95t19.5 -155q0 -93 -21 -251t-49 -239q-46 -137 -137.5 -192t-257.5 -55q-91 0 -150 12.5t-103 46.5t-63.5 95t-19.5 155zM221 293q0 -119 44 -158t169 -39q116 0 174 33 t88 123q21 61 40.5 216.5t19.5 244.5q0 120 -44 159t-169 39q-115 0 -173.5 -33.5t-88.5 -123.5q-21 -61 -40.5 -216.5t-19.5 -244.5zM475 1128q0 16 21 48l127 200q13 23 29.5 31t60.5 8t56.5 -6t12.5 -20q0 -18 -26 -56l-144 -192q-15 -21 -30.5 -28t-55.5 -7 q-30 0 -40.5 5t-10.5 17z" />
<glyph unicode="&#xf4;" horiz-adv-x="978" d="M88 289q0 92 21 250t49 239q46 137 137.5 192.5t257.5 55.5q91 0 150 -12.5t103 -46.5t63.5 -95t19.5 -155q0 -93 -21 -251t-49 -239q-46 -137 -137.5 -192t-257.5 -55q-91 0 -150 12.5t-103 46.5t-63.5 95t-19.5 155zM221 293q0 -119 44 -158t169 -39q116 0 174 33 t88 123q21 61 40.5 216.5t19.5 244.5q0 120 -44 159t-169 39q-115 0 -173.5 -33.5t-88.5 -123.5q-21 -61 -40.5 -216.5t-19.5 -244.5zM309 1128q0 15 25 50l145 198q18 23 34.5 31t53.5 8h43q37 0 51 -7.5t25 -29.5l105 -204q16 -32 16 -44q0 -24 -53 -24q-36 0 -51.5 7 t-26.5 26l-92 170h-11l-124 -170q-26 -33 -95 -33q-27 0 -36 5t-9 17z" />
<glyph unicode="&#xf5;" horiz-adv-x="978" d="M88 289q0 92 21 250t49 239q46 137 137.5 192.5t257.5 55.5q91 0 150 -12.5t103 -46.5t63.5 -95t19.5 -155q0 -93 -21 -251t-49 -239q-46 -137 -137.5 -192t-257.5 -55q-91 0 -150 12.5t-103 46.5t-63.5 95t-19.5 155zM221 293q0 -119 44 -158t169 -39q116 0 174 33 t88 123q21 61 40.5 216.5t19.5 244.5q0 120 -44 159t-169 39q-115 0 -173.5 -33.5t-88.5 -123.5q-21 -61 -40.5 -216.5t-19.5 -244.5zM328 1190q0 38 11 58.5t42 37.5q59 33 121 33q42 0 103.5 -21.5t92.5 -21.5q39 0 83 19.5t48 19.5q19 0 19 -25q0 -38 -11 -58.5 t-42 -37.5q-59 -33 -123 -33q-40 0 -102 21.5t-93 21.5q-40 0 -83.5 -19.5t-47.5 -19.5q-18 0 -18 25z" />
<glyph unicode="&#xf6;" horiz-adv-x="978" d="M88 289q0 92 21 250t49 239q46 137 137.5 192.5t257.5 55.5q91 0 150 -12.5t103 -46.5t63.5 -95t19.5 -155q0 -93 -21 -251t-49 -239q-46 -137 -137.5 -192t-257.5 -55q-91 0 -150 12.5t-103 46.5t-63.5 95t-19.5 155zM221 293q0 -119 44 -158t169 -39q116 0 174 33 t88 123q21 61 40.5 216.5t19.5 244.5q0 120 -44 159t-169 39q-115 0 -173.5 -33.5t-88.5 -123.5q-21 -61 -40.5 -216.5t-19.5 -244.5zM367 1221q0 24 10 73q4 24 19.5 31.5t56.5 7.5q38 0 49.5 -7.5t11.5 -31.5q0 -22 -10 -71q-4 -26 -19.5 -33.5t-56.5 -7.5 q-38 0 -49.5 7.5t-11.5 31.5zM627 1221q0 8 10 73q6 24 21 31.5t57 7.5q37 0 49 -8t12 -31q0 -22 -10 -71q-4 -26 -19.5 -33.5t-56.5 -7.5q-38 0 -50.5 8t-12.5 31z" />
<glyph unicode="&#xf7;" d="M201 524q0 44 10 64q7 22 35 22h481q16 0 22.5 -5.5t6.5 -22.5q0 -42 -11 -64q-8 -24 -34 -24h-484q-14 0 -20 6t-6 24zM367 190q0 4 6 68q3 29 17.5 38t55.5 9q38 0 52 -7t14 -28q0 -2 -6 -67q-3 -30 -17.5 -38.5t-56.5 -8.5q-38 0 -51.5 6t-13.5 28zM430 797q0 3 6 67 q4 30 19 38.5t57 8.5q38 0 50.5 -6t12.5 -28q0 -3 -6 -68q-3 -29 -17 -38t-56 -9q-37 0 -51.5 7t-14.5 28z" />
<glyph unicode="&#xf8;" horiz-adv-x="978" d="M88 289q0 92 21 250t49 239q46 137 137.5 192.5t257.5 55.5q91 0 150 -12.5t103 -46.5t63.5 -95t19.5 -155q0 -93 -21 -251t-49 -239q-46 -137 -137.5 -192t-257.5 -55q-91 0 -150 12.5t-103 46.5t-63.5 95t-19.5 155zM221 254l490 618q-44 39 -168 39 q-115 0 -173.5 -33.5t-88.5 -123.5q-21 -61 -40.5 -216.5t-19.5 -244.5v-39zM258 141q42 -45 176 -45q116 0 174 33t88 123q21 61 40.5 216.5t19.5 244.5q0 35 -2 51z" />
<glyph unicode="&#xf9;" horiz-adv-x="1019" d="M125 190q0 61 37 318q31 214 31 291q0 37 -11.5 100t-11.5 66q0 24 12 32.5t51 8.5q35 0 47.5 -8.5t18.5 -32.5q25 -107 25 -162q0 -60 -33 -297t-33 -289q0 -69 34.5 -96t119.5 -27q160 0 233 86.5t94 286.5l49 491q3 29 17.5 38.5t54.5 9.5q36 0 50 -6.5t14 -26.5 q0 -28 -36 -355.5t-36 -363.5q0 -26 7 -113.5t7 -105.5q0 -19 -12 -27t-47 -8t-47.5 8t-14.5 29l-14 149q-44 -104 -130.5 -155t-229.5 -51q-137 0 -191.5 49.5t-54.5 160.5zM358 1384q0 18 14 24.5t58 6.5t60.5 -8t25.5 -31q143 -224 143 -243q0 -27 -53 -27 q-40 0 -55.5 7.5t-28.5 27.5l-137 188q-27 39 -27 55z" />
<glyph unicode="&#xfa;" horiz-adv-x="1019" d="M125 190q0 61 37 318q31 214 31 291q0 37 -11.5 100t-11.5 66q0 24 12 32.5t51 8.5q35 0 47.5 -8.5t18.5 -32.5q25 -107 25 -162q0 -60 -33 -297t-33 -289q0 -69 34.5 -96t119.5 -27q160 0 233 86.5t94 286.5l49 491q3 29 17.5 38.5t54.5 9.5q36 0 50 -6.5t14 -26.5 q0 -28 -36 -355.5t-36 -363.5q0 -26 7 -113.5t7 -105.5q0 -19 -12 -27t-47 -8t-47.5 8t-14.5 29l-14 149q-44 -104 -130.5 -155t-229.5 -51q-137 0 -191.5 49.5t-54.5 160.5zM475 1128q0 16 21 48l127 200q13 23 29.5 31t60.5 8t56.5 -6t12.5 -20q0 -18 -26 -56l-144 -192 q-15 -21 -30.5 -28t-55.5 -7q-30 0 -40.5 5t-10.5 17z" />
<glyph unicode="&#xfb;" horiz-adv-x="1019" d="M125 190q0 61 37 318q31 214 31 291q0 37 -11.5 100t-11.5 66q0 24 12 32.5t51 8.5q35 0 47.5 -8.5t18.5 -32.5q25 -107 25 -162q0 -60 -33 -297t-33 -289q0 -69 34.5 -96t119.5 -27q160 0 233 86.5t94 286.5l49 491q3 29 17.5 38.5t54.5 9.5q36 0 50 -6.5t14 -26.5 q0 -28 -36 -355.5t-36 -363.5q0 -26 7 -113.5t7 -105.5q0 -19 -12 -27t-47 -8t-47.5 8t-14.5 29l-14 149q-44 -104 -130.5 -155t-229.5 -51q-137 0 -191.5 49.5t-54.5 160.5zM305 1128q0 15 25 50l145 198q18 23 34.5 31t53.5 8h43q37 0 51 -7.5t25 -29.5l104 -204 q17 -34 17 -44q0 -24 -53 -24q-36 0 -51.5 7t-26.5 26l-92 170h-11l-125 -170q-15 -19 -35.5 -26t-58.5 -7q-27 0 -36 5t-9 17z" />
<glyph unicode="&#xfc;" horiz-adv-x="1019" d="M125 190q0 61 37 318q31 214 31 291q0 37 -11.5 100t-11.5 66q0 24 12 32.5t51 8.5q35 0 47.5 -8.5t18.5 -32.5q25 -107 25 -162q0 -60 -33 -297t-33 -289q0 -69 34.5 -96t119.5 -27q160 0 233 86.5t94 286.5l49 491q3 29 17.5 38.5t54.5 9.5q36 0 50 -6.5t14 -26.5 q0 -28 -36 -355.5t-36 -363.5q0 -26 7 -113.5t7 -105.5q0 -19 -12 -27t-47 -8t-47.5 8t-14.5 29l-14 149q-44 -104 -130.5 -155t-229.5 -51q-137 0 -191.5 49.5t-54.5 160.5zM365 1221q0 24 10 73q4 24 19.5 31.5t56.5 7.5q38 0 49.5 -7.5t11.5 -31.5q0 -22 -10 -71 q-4 -26 -19.5 -33.5t-56.5 -7.5q-38 0 -49.5 7.5t-11.5 31.5zM625 1221q0 8 10 73q6 24 21 31.5t57 7.5q37 0 49 -8t12 -31q0 -22 -10 -71q-4 -26 -19.5 -33.5t-56.5 -7.5q-38 0 -50.5 8t-12.5 31z" />
<glyph unicode="&#xfd;" horiz-adv-x="882" d="M-45 -328q0 66 37 66q5 0 51.5 -6t91.5 -6q64 0 103.5 28t74.5 109q3 8 25 58.5t33 78.5q-44 1 -63.5 17t-28.5 57l-177 794q-18 78 -18 97q0 21 16 32q22 9 56 9q38 0 50.5 -6t16.5 -27q14 -73 74 -371.5t100 -480.5h23q170 430 313 852q7 21 23 27t55 6q38 0 50.5 -8 t12.5 -25q0 -21 -30 -103q-61 -171 -199.5 -525t-228.5 -546q-46 -97 -111.5 -143.5t-167.5 -46.5q-86 0 -139 16q-23 6 -33 16t-10 31zM387 1128q0 16 21 48l127 200q13 23 29.5 31t60.5 8t56.5 -6t12.5 -20q0 -18 -26 -56l-144 -192q-15 -21 -30.5 -28t-55.5 -7 q-30 0 -40.5 5t-10.5 17z" />
<glyph unicode="&#xfe;" horiz-adv-x="1028" d="M66 -354q0 2 14 141l156 1501q3 30 16 38.5t53 8.5q38 0 51 -5.5t13 -26.5q0 -6 -0.5 -14t-2 -18.5t-4.5 -37.5t-6 -59l-32 -302q55 87 132.5 120.5t202.5 33.5q80 0 130.5 -12t86.5 -45t51 -89t15 -145q0 -123 -23 -293.5t-67 -263.5q-51 -106 -136.5 -152t-217.5 -46 q-192 0 -256 106l-43 -426q-3 -30 -16 -38.5t-54 -8.5q-36 0 -49.5 6t-13.5 27zM258 256q0 -79 51 -120.5t183 -41.5q96 0 153 30t88 105q35 84 54.5 241t19.5 249q0 115 -40.5 152.5t-150.5 37.5q-161 0 -235.5 -92t-97.5 -287q-25 -207 -25 -274z" />
<glyph unicode="&#xff;" horiz-adv-x="882" d="M-45 -328q0 66 37 66q5 0 51.5 -6t91.5 -6q64 0 103.5 28t74.5 109q3 8 25 58.5t33 78.5q-44 1 -63.5 17t-28.5 57l-177 794q-18 78 -18 97q0 21 16 32q22 9 56 9q38 0 50.5 -6t16.5 -27q14 -73 74 -371.5t100 -480.5h23q170 430 313 852q7 21 23 27t55 6q38 0 50.5 -8 t12.5 -25q0 -21 -30 -103q-61 -171 -199.5 -525t-228.5 -546q-46 -97 -111.5 -143.5t-167.5 -46.5q-86 0 -139 16q-23 6 -33 16t-10 31zM293 1221q0 24 10 73q4 24 19.5 31.5t56.5 7.5q38 0 49.5 -7.5t11.5 -31.5q0 -22 -10 -71q-4 -26 -19.5 -33.5t-56.5 -7.5 q-38 0 -49.5 7.5t-11.5 31.5zM553 1221q0 8 10 73q6 24 21 31.5t57 7.5q37 0 49 -8t12 -31q0 -22 -10 -71q-4 -26 -19.5 -33.5t-56.5 -7.5q-38 0 -50.5 8t-12.5 31z" />
<glyph unicode="&#x152;" horiz-adv-x="1605" d="M104 360q0 95 18 263.5t38 277.5q17 94 43 158t60.5 105t88.5 62.5t114 29.5t150 8q104 0 173 -14t112 -50q5 32 17 42.5t47 10.5h604q16 0 22 -6.5t6 -27.5q0 -51 -10.5 -70t-30.5 -19h-532l-43 -407h424q16 0 22.5 -7t6.5 -26q0 -52 -9.5 -69t-31.5 -17h-424l-49 -481 h548q15 0 22 -7.5t7 -27.5q0 -51 -10 -69.5t-31 -18.5h-618q-31 0 -42.5 10.5t-11.5 36.5q-50 -38 -122.5 -51.5t-178.5 -13.5q-56 0 -95.5 2.5t-82.5 11.5t-71 25.5t-54.5 44.5t-42 68t-24.5 96.5t-9 129.5zM236 348q0 -82 13 -131.5t46.5 -76t77.5 -34.5t121 -8 q65 0 106.5 5t80 23.5t61 48.5t42.5 85.5t32.5 129.5t23.5 185q28 273 28 340q0 52 -5.5 88.5t-19.5 62.5t-32.5 42t-50.5 24.5t-66.5 11.5t-87.5 3q-59 0 -97 -3.5t-73.5 -15t-57.5 -31t-41.5 -53.5t-32 -80.5t-23.5 -113.5q-15 -94 -30 -261t-15 -241z" />
<glyph unicode="&#x153;" horiz-adv-x="1538" d="M88 289q0 92 21 250t49 239q46 137 137.5 192.5t257.5 55.5q126 0 197 -30.5t100 -110.5q27 46 63 75.5t81.5 43t86.5 18t99 4.5q87 0 144 -13.5t86.5 -41.5t40.5 -61.5t11 -82.5q0 -131 -31 -213t-110 -118q-60 -29 -143.5 -43.5t-257.5 -14.5h-58q-6 -76 -6 -147 q0 -119 46.5 -158t178.5 -39q62 0 125.5 13t105 25.5t48.5 12.5q18 0 18 -30q0 -44 -9.5 -60.5t-37.5 -25.5q-123 -49 -278 -49q-130 0 -198 27.5t-97 107.5q-49 -72 -129 -103.5t-205 -31.5q-91 0 -150 12.5t-103 46.5t-63.5 95t-19.5 155zM221 293q0 -119 44 -158t169 -39 q84 0 134.5 15t86 60t53 114.5t31.5 189.5q19 171 19 232q0 122 -45.5 163t-169.5 41q-115 0 -173.5 -33.5t-88.5 -123.5q-21 -61 -40.5 -216.5t-19.5 -244.5zM872 543h35q279 0 359 49q23 14 36 30t24 62.5t11 122.5q0 27 -5.5 43.5t-22.5 31.5t-53 22t-93 7 q-103 0 -156.5 -29t-82.5 -116q-37 -99 -52 -223z" />
<glyph unicode="&#x178;" horiz-adv-x="935" d="M125 1223q0 18 16.5 24t55.5 6q43 0 58 -5.5t21 -26.5l203 -582h8l324 582q10 21 28 26.5t62 5.5q34 0 47 -5.5t13 -20.5q0 -17 -19 -51l-407 -682l-48 -447q-3 -28 -16.5 -37.5t-54.5 -9.5q-36 0 -48 6.5t-12 26.5q0 17 4 53l41 408l-264 682q-12 36 -12 47zM362 1460 q0 20 11 74q4 24 19.5 31.5t56.5 7.5q38 0 49.5 -7.5t11.5 -31.5q0 -23 -10 -72q-4 -26 -19.5 -33.5t-56.5 -7.5q-38 0 -50 8t-12 31zM623 1460q0 9 10 74q6 24 21 31.5t57 7.5q37 0 49 -8t12 -31t-10 -72q-4 -26 -19.5 -33.5t-56.5 -7.5q-38 0 -50.5 8t-12.5 31z" />
<glyph unicode="&#x2c6;" horiz-adv-x="557" d="M109 1128q0 17 24 50l146 198q18 23 34.5 31t53.5 8h43q37 0 50 -7.5t25 -29.5l105 -204q16 -32 16 -44q0 -24 -53 -24q-36 0 -51.5 7t-26.5 26l-92 170h-10l-125 -170q-15 -19 -35.5 -26t-58.5 -7q-27 0 -36 5t-9 17z" />
<glyph unicode="&#x2dc;" horiz-adv-x="602" d="M139 1190q0 38 11.5 58.5t42.5 37.5q59 33 120 33q42 0 104 -21.5t93 -21.5q39 0 83 19.5t48 19.5q18 0 18 -25q0 -38 -11 -58.5t-42 -37.5q-59 -33 -123 -33q-41 0 -102 21.5t-92 21.5q-40 0 -83.5 -19.5t-47.5 -19.5q-19 0 -19 25z" />
<glyph unicode="&#x2000;" horiz-adv-x="860" />
<glyph unicode="&#x2001;" horiz-adv-x="1720" />
<glyph unicode="&#x2002;" horiz-adv-x="860" />
<glyph unicode="&#x2003;" horiz-adv-x="1720" />
<glyph unicode="&#x2004;" horiz-adv-x="573" />
<glyph unicode="&#x2005;" horiz-adv-x="430" />
<glyph unicode="&#x2006;" horiz-adv-x="286" />
<glyph unicode="&#x2007;" horiz-adv-x="286" />
<glyph unicode="&#x2008;" horiz-adv-x="215" />
<glyph unicode="&#x2009;" horiz-adv-x="344" />
<glyph unicode="&#x200a;" horiz-adv-x="95" />
<glyph unicode="&#x2010;" horiz-adv-x="616" d="M76 516q0 48 10 68q10 24 35 24h405q18 0 23.5 -6t5.5 -24q0 -45 -10 -68q-8 -25 -35 -25h-406q-15 0 -21.5 7t-6.5 24z" />
<glyph unicode="&#x2011;" horiz-adv-x="616" d="M76 516q0 48 10 68q10 24 35 24h405q18 0 23.5 -6t5.5 -24q0 -45 -10 -68q-8 -25 -35 -25h-406q-15 0 -21.5 7t-6.5 24z" />
<glyph unicode="&#x2012;" horiz-adv-x="616" d="M76 516q0 48 10 68q10 24 35 24h405q18 0 23.5 -6t5.5 -24q0 -45 -10 -68q-8 -25 -35 -25h-406q-15 0 -21.5 7t-6.5 24z" />
<glyph unicode="&#x2013;" horiz-adv-x="831" d="M76 516q0 48 10 68q7 24 35 24h620q16 0 22.5 -6t6.5 -24q0 -45 -10 -68q-11 -25 -35 -25h-621q-17 0 -22.5 6.5t-5.5 24.5z" />
<glyph unicode="&#x2014;" horiz-adv-x="1349" d="M76 516q0 48 10 68q7 24 35 24h1139q16 0 22 -6t6 -24q0 -33 -10 -68q-11 -25 -37 -25h-1137q-17 0 -22.5 6.5t-5.5 24.5z" />
<glyph unicode="&#x2018;" horiz-adv-x="319" d="M133 954q0 8 6 72q6 65 37 148l49 131q9 25 23 33t47 8q24 0 32.5 -4.5t8.5 -16.5q0 -13 -23.5 -106t-29.5 -154l-11 -96q-3 -30 -16.5 -40.5t-56.5 -10.5q-39 0 -52.5 7.5t-13.5 28.5z" />
<glyph unicode="&#x2019;" horiz-adv-x="319" d="M139 938q0 13 24 106t30 154l10 96q3 31 16.5 41.5t56.5 10.5q39 0 52.5 -8t13.5 -29q0 -7 -6 -72q-6 -64 -37 -147l-49 -132q-9 -24 -23 -32t-47 -8q-25 0 -33 4t-8 16z" />
<glyph unicode="&#x201a;" horiz-adv-x="325" d="M-2 -252q0 13 23.5 106t29.5 154l10 96q3 30 17 41t57 11q39 0 52.5 -8t13.5 -29q0 -7 -6 -72q-6 -64 -37 -147l-49 -131q-11 -25 -24.5 -33t-45.5 -8q-25 0 -33 4t-8 16z" />
<glyph unicode="&#x201c;" horiz-adv-x="589" d="M133 954q0 8 6 72q6 65 37 148l49 131q9 25 23 33t47 8q24 0 32.5 -4.5t8.5 -16.5q0 -13 -23.5 -106t-29.5 -154l-11 -96q-3 -30 -16.5 -40.5t-56.5 -10.5q-39 0 -52.5 7.5t-13.5 28.5zM403 954q0 2 1 10t2.5 26t3.5 36q6 69 36 148l50 131q9 25 23 33t46 8 q24 0 32.5 -4.5t8.5 -16.5q0 -13 -23.5 -106t-29.5 -154l-10 -96q-3 -30 -17 -40.5t-57 -10.5q-39 0 -52.5 7.5t-13.5 28.5z" />
<glyph unicode="&#x201d;" horiz-adv-x="589" d="M139 938q0 13 24 106t30 154l10 96q3 31 16.5 41.5t56.5 10.5q39 0 52.5 -8t13.5 -29q0 -7 -6 -72q-6 -64 -37 -147l-49 -132q-9 -24 -23 -32t-47 -8q-25 0 -33 4t-8 16zM410 938q0 13 23.5 106t29.5 154l10 96q3 30 17 41t57 11q39 0 52 -8t13 -29q0 -7 -6 -72 q-6 -64 -37 -147l-49 -132q-9 -24 -22.5 -32t-46.5 -8q-25 0 -33 4t-8 16z" />
<glyph unicode="&#x201e;" horiz-adv-x="593" d="M-2 -252q0 14 23.5 109.5t29.5 150.5l10 96q3 30 17 41t57 11q39 0 52.5 -8t13.5 -29q0 -7 -6 -72q-6 -64 -37 -147l-49 -131q-11 -25 -24.5 -33t-45.5 -8q-25 0 -33 4t-8 16zM266 -252q0 14 23.5 109.5t29.5 150.5l11 96q3 31 16.5 41.5t56.5 10.5q39 0 52.5 -8 t13.5 -29q0 -7 -6 -72q-5 -57 -39 -147l-49 -131q-11 -25 -24 -33t-44 -8q-25 0 -33 4t-8 16z" />
<glyph unicode="&#x2022;" horiz-adv-x="552" d="M72 502q0 56 11 118t28 87q24 46 69 59.5t129 13.5q106 0 149.5 -32.5t43.5 -122.5q0 -56 -11 -117t-28 -88q-26 -46 -71 -60t-128 -14q-106 0 -149 33t-43 123z" />
<glyph unicode="&#x2026;" horiz-adv-x="1132" d="M59 37q0 3 1 11t2.5 26t3.5 35q3 32 18.5 41.5t60.5 9.5q40 0 55 -7.5t15 -29.5q0 -7 -6 -72q-3 -32 -19 -41.5t-61 -9.5q-40 0 -55 7.5t-15 29.5zM440 37q0 7 6 72q3 32 19 41.5t61 9.5q40 0 55 -7.5t15 -29.5q0 -7 -6 -72q-3 -32 -19 -41.5t-61 -9.5q-40 0 -55 7.5 t-15 29.5zM821 37q0 7 6 72q3 32 19 41.5t61 9.5q40 0 55 -7.5t15 -29.5q0 -7 -6 -72q-3 -32 -19 -41.5t-61 -9.5q-40 0 -55 7.5t-15 29.5z" />
<glyph unicode="&#x202f;" horiz-adv-x="344" />
<glyph unicode="&#x2039;" horiz-adv-x="632" d="M76 475q0 56 14 96q12 33 45 52l406 266q36 20 47 20q20 0 20 -39q0 -42 -9.5 -69t-39.5 -47l-342 -234l-2 -16l293 -234q31 -24 31 -55q0 -34 -8 -63t-25 -29q-20 0 -43 20l-346 263q-23 16 -32 30.5t-9 38.5z" />
<glyph unicode="&#x203a;" horiz-adv-x="632" d="M72 162q0 42 9.5 69.5t39.5 47.5l342 233l2 16l-293 234q-31 24 -31 55q0 34 8 63t25 29q20 0 43 -20l346 -262q41 -28 41 -70q0 -56 -14 -96q-10 -29 -45 -51l-406 -267q-30 -20 -47 -20q-20 0 -20 39z" />
<glyph unicode="&#x205f;" horiz-adv-x="430" />
<glyph unicode="&#x20ac;" d="M92 489q0 13 17 64q8 18 22 18h57l19 144h-78q-16 0 -16 14q0 16 16 64q7 16 23 16h67q13 89 31 157.5t39 116.5t51 81.5t58.5 53t70.5 30t79.5 13.5t92.5 3q164 0 291 -41q20 -6 26.5 -14t6.5 -25q0 -78 -31 -78q-6 0 -49 9t-108.5 18.5t-127.5 9.5q-53 0 -85.5 -3 t-66 -14.5t-52.5 -32.5t-38.5 -59t-31.5 -92t-23 -133h367q16 0 16 -14q0 -16 -16 -64q-7 -16 -23 -16h-358l-16 -144h352q16 0 16 -14q0 -17 -16 -65q-7 -17 -23 -17h-336q-4 -51 -4 -115q0 -60 7 -103.5t23 -72t35 -46t51.5 -26.5t64 -11.5t79.5 -2.5q95 0 189 20.5 t100 20.5q19 0 19 -26q0 -43 -11.5 -60.5t-46.5 -29.5q-114 -41 -282 -41q-50 0 -83.5 2t-75 10t-68.5 22.5t-55 41.5t-44.5 64.5t-26.5 93.5t-10 128q0 40 6 131h-73q-17 0 -17 14z" />
<glyph unicode="&#x2122;" horiz-adv-x="1429" d="M121 1180q0 44 9 58.5t28 14.5h448q14 0 20.5 -6t6.5 -24q0 -45 -9.5 -60.5t-29.5 -15.5h-166l-53 -508q-3 -25 -14.5 -33t-49.5 -8q-31 0 -42 6t-11 23q0 6 12 121l41 399h-166q-14 0 -19 7t-5 26zM682 627q0 6 12 121l49 456q3 31 21.5 40t93.5 9q60 0 78.5 -11 t28.5 -56l82 -369l161 367q20 46 42 57.5t85 11.5q65 0 84 -7t19 -29q0 -3 -1 -11.5t-4.5 -39t-7.5 -70.5l-49 -451q-3 -29 -14 -38t-49 -9q-31 0 -42 6t-11 23q0 6 12 121q32 298 39 372h-17l-186 -409q-13 -30 -27.5 -38.5t-48.5 -8.5t-46 8.5t-19 38.5l-101 409h-18 l-49 -475q-3 -29 -14.5 -38t-49.5 -9q-31 0 -42 6t-11 23z" />
<glyph unicode="&#x25fc;" horiz-adv-x="1003" d="M0 0v1004h1004v-1004h-1004z" />
</font>
</defs>
</svg>
